<svg width="108" height="34" viewBox="0 0 108 34" fill="none" xmlns="http://www.w3.org/2000/svg">
<path d="M57.095 8.76035C57.095 9.95855 56.1298 10.9238 54.9316 10.9238C53.7334 10.9238 52.7682 9.95855 52.7682 8.76035C52.7682 7.56216 53.7001 6.59694 54.9316 6.59694C56.1631 6.63022 57.095 7.59544 57.095 8.76035ZM48.1751 13.1205C48.1751 13.3202 48.1751 13.653 48.1751 13.653C48.1751 13.653 47.1433 12.3217 44.9466 12.3217C41.3187 12.3217 38.4897 15.0842 38.4897 18.9118C38.4897 22.706 41.2855 25.5018 44.9466 25.5018C47.1766 25.5018 48.1751 24.1372 48.1751 24.1372V24.703C48.1751 24.9693 48.3748 25.169 48.6411 25.169H51.337V12.6545C51.337 12.6545 48.8741 12.6545 48.6411 12.6545C48.3748 12.6545 48.1751 12.8875 48.1751 13.1205ZM48.1751 21.1417C47.6758 21.874 46.6774 22.5063 45.4792 22.5063C43.349 22.5063 41.7181 21.175 41.7181 18.9118C41.7181 16.6485 43.349 15.3172 45.4792 15.3172C46.6441 15.3172 47.7091 15.9828 48.1751 16.6818V21.1417ZM53.334 12.6545H56.5292V25.169H53.334V12.6545ZM101.062 12.3217C98.8655 12.3217 97.8337 13.653 97.8337 13.653V6.63022H94.6385V25.169C94.6385 25.169 97.1015 25.169 97.3345 25.169C97.6008 25.169 97.8005 24.936 97.8005 24.703V24.1372C97.8005 24.1372 98.8323 25.5018 101.029 25.5018C104.657 25.5018 107.486 22.706 107.486 18.9118C107.486 15.1175 104.657 12.3217 101.062 12.3217ZM100.53 22.4731C99.2982 22.4731 98.333 21.8407 97.8337 21.1085V16.6485C98.333 15.9828 99.3981 15.2839 100.53 15.2839C102.66 15.2839 104.291 16.6152 104.291 18.8785C104.291 21.1417 102.66 22.4731 100.53 22.4731ZM92.9744 17.7468V25.2023H89.7792V18.113C89.7792 16.0494 89.1135 15.2173 87.3162 15.2173C86.351 15.2173 85.3525 15.7166 84.7201 16.4488V25.169H81.5249V12.6545H84.0545C84.3207 12.6545 84.5204 12.8875 84.5204 13.1205V13.653C85.4524 12.6878 86.6838 12.3217 87.9153 12.3217C89.3132 12.3217 90.4781 12.7211 91.4101 13.5199C92.5417 14.4518 92.9744 15.65 92.9744 17.7468ZM73.7699 12.3217C71.5732 12.3217 70.5415 13.653 70.5415 13.653V6.63022H67.3463V25.169C67.3463 25.169 69.8092 25.169 70.0422 25.169C70.3085 25.169 70.5082 24.936 70.5082 24.703V24.1372C70.5082 24.1372 71.54 25.5018 73.7367 25.5018C77.3645 25.5018 80.1936 22.706 80.1936 18.9118C80.2269 15.1175 77.3978 12.3217 73.7699 12.3217ZM73.2374 22.4731C72.0059 22.4731 71.0407 21.8407 70.5415 21.1085V16.6485C71.0407 15.9828 72.1058 15.2839 73.2374 15.2839C75.3675 15.2839 76.9984 16.6152 76.9984 18.8785C76.9984 21.1417 75.3675 22.4731 73.2374 22.4731ZM64.5838 12.3217C65.549 12.3217 66.0482 12.4881 66.0482 12.4881V15.4503C66.0482 15.4503 63.3856 14.5516 61.7214 16.4488V25.2023H58.5262V12.6545C58.5262 12.6545 60.9892 12.6545 61.2221 12.6545C61.4884 12.6545 61.6881 12.8875 61.6881 13.1205V13.653C62.2872 12.954 63.5853 12.3217 64.5838 12.3217ZM31.4003 24.0374C31.2339 23.638 31.0675 23.2053 30.9011 22.8392C30.6348 22.2401 30.3685 21.6743 30.1356 21.1417L30.1023 21.1085C27.8057 16.116 25.3428 11.0569 22.7467 6.06441L22.6468 5.86471C22.3806 5.36546 22.1143 4.83293 21.848 4.30039C21.5152 3.70129 21.1824 3.06891 20.6498 2.46981C19.5848 1.13848 18.0537 0.40625 16.4229 0.40625C14.7587 0.40625 13.2609 1.13848 12.1626 2.40325C11.6633 3.00235 11.2972 3.63473 10.9644 4.23383C10.6981 4.76636 10.4319 5.29889 10.1656 5.79814L10.0658 5.99784C7.50294 10.9903 5.00669 16.0494 2.71015 21.0419L2.67686 21.1085C2.44388 21.641 2.17761 22.2068 1.91135 22.8059C1.74493 23.172 1.57852 23.5714 1.4121 24.0041C0.979416 25.2356 0.846283 26.4005 1.0127 27.5987C1.37882 30.0949 3.04298 32.1918 5.33953 33.1237C6.20489 33.4898 7.10354 33.6562 8.03547 33.6562C8.30174 33.6562 8.63457 33.623 8.90084 33.5897C9.99918 33.4565 11.1308 33.0904 12.2292 32.458C13.5938 31.6925 14.8918 30.5942 16.3563 28.9966C17.8208 30.5942 19.1521 31.6925 20.4834 32.458C21.5818 33.0904 22.7134 33.4565 23.8117 33.5897C24.078 33.623 24.4108 33.6562 24.6771 33.6562C25.609 33.6562 26.541 33.4898 27.3731 33.1237C29.7029 32.1918 31.3338 30.0617 31.6999 27.5987C31.9661 26.4338 31.833 25.2689 31.4003 24.0374ZM16.3896 25.7681C14.5923 23.5048 13.4274 21.3747 13.028 19.5774C12.8615 18.8119 12.8283 18.1462 12.9281 17.5471C12.9947 17.0146 13.1944 16.5486 13.4606 16.1492C14.093 15.2506 15.1581 14.6848 16.3896 14.6848C17.6211 14.6848 18.7194 15.2173 19.3185 16.1492C19.5848 16.5486 19.7845 17.0146 19.851 17.5471C19.9509 18.1462 19.9176 18.8452 19.7512 19.5774C19.3518 21.3414 18.1869 23.4716 16.3896 25.7681ZM29.6696 27.3324C29.4366 29.0632 28.2717 30.5609 26.6408 31.2266C25.842 31.5594 24.9767 31.6593 24.1113 31.5594C23.2792 31.4596 22.4471 31.1933 21.5818 30.694C20.3836 30.0284 19.1854 28.9966 17.7875 27.4656C19.9842 24.7696 21.3155 22.3067 21.8147 20.11C22.0477 19.0782 22.081 18.1462 21.9812 17.2809C21.848 16.4488 21.5485 15.6833 21.0825 15.0176C20.0507 13.5199 18.32 12.6545 16.3896 12.6545C14.4591 12.6545 12.7284 13.5531 11.6966 15.0176C11.2307 15.6833 10.9311 16.4488 10.798 17.2809C10.6648 18.1462 10.6981 19.1115 10.9644 20.11C11.4636 22.3067 12.8283 24.8029 14.9917 27.4988C13.6271 29.0299 12.3956 30.0617 11.1974 30.7273C10.332 31.2266 9.49994 31.4928 8.66785 31.5927C7.7692 31.6925 6.90384 31.5594 6.13832 31.2599C4.50744 30.5942 3.34253 29.0964 3.10955 27.3657C3.0097 26.5336 3.07626 25.7015 3.4091 24.7696C3.50895 24.4368 3.67536 24.1039 3.84178 23.7045C4.07476 23.172 4.34103 22.6062 4.60729 22.0404L4.64058 21.9738C6.93712 17.0146 9.40009 11.9555 11.9629 7.02962L12.0627 6.82992C12.329 6.33067 12.5953 5.79814 12.8615 5.29889C13.1278 4.76636 13.4274 4.26711 13.7935 3.83443C14.4924 3.03563 15.4244 2.60295 16.4561 2.60295C17.4879 2.60295 18.4199 3.03563 19.1188 3.83443C19.4849 4.26711 19.7845 4.76636 20.0507 5.29889C20.317 5.79814 20.5833 6.33067 20.8495 6.82992L20.9494 7.02962C23.4789 11.9888 25.9419 17.0479 28.2384 22.0071V22.0404C28.5047 22.5729 28.7377 23.172 29.0039 23.7045C29.1704 24.1039 29.3368 24.4368 29.4366 24.7696C29.7029 25.635 29.8027 26.4671 29.6696 27.3324Z" fill="#FFF4DA"/>
</svg>
