<svg width="92" height="28" viewBox="0 0 92 28" fill="none" xmlns="http://www.w3.org/2000/svg">
<path fill-rule="evenodd" clip-rule="evenodd" d="M8.72893 9.19879L8.72882 9.04918V8.43898C6.69218 8.43898 4.54063 8.87484 4.54063 11.276C4.54063 12.4924 5.17064 13.3166 6.25236 13.3166C7.04483 13.3166 7.75408 12.8292 8.20183 12.0368C8.73116 11.1067 8.73014 10.2307 8.72893 9.19879ZM10.9041 15.9833C11.1141 16.0942 11.3836 16.0823 11.5698 15.9159L11.5777 15.9238C12.1404 15.4246 13.1627 14.533 13.7372 14.0536C13.967 13.8634 13.9274 13.5583 13.7451 13.3047C13.6899 13.2283 13.6343 13.1534 13.5791 13.0789C13.1191 12.459 12.6832 11.8716 12.6832 10.6935V6.30328C12.6832 6.15331 12.6841 6.00432 12.6849 5.85645C12.6945 4.17209 12.7033 2.6339 11.443 1.45735C10.3613 0.419223 8.57032 0.0546875 7.19936 0.0546875C4.52082 0.0546875 1.52926 1.0532 0.899251 4.36571C0.835854 4.71835 1.08944 4.90458 1.31926 4.95609L4.05327 5.2493C4.30685 5.23742 4.49308 4.98779 4.54063 4.7342C4.77441 3.59305 5.7333 3.04229 6.80709 3.04229C7.38559 3.04229 8.04333 3.25625 8.38806 3.77532C8.74007 4.29445 8.73472 4.98589 8.72991 5.60625V5.60628V5.6063C8.72936 5.67722 8.72882 5.74722 8.72882 5.81592V6.18045C8.46507 6.21054 8.18818 6.23887 7.90283 6.26807C6.42205 6.41957 4.71353 6.59438 3.43118 7.15915C1.66794 7.91992 0.427734 9.47711 0.427734 11.7634C0.427734 14.6915 2.27418 16.1536 4.64365 16.1536C6.64859 16.1536 7.74219 15.6821 9.2875 14.1051C9.36904 14.2224 9.44183 14.3301 9.51033 14.4315C9.87455 14.9706 10.117 15.3296 10.9041 15.9833ZM45.6618 9.04919L45.6619 9.19881V9.19883C45.6631 10.2307 45.6641 11.1067 45.1348 12.0368C44.6871 12.8293 43.9739 13.3166 43.1854 13.3166C42.1036 13.3166 41.4697 12.4925 41.4697 11.276C41.4697 8.87484 43.6212 8.43899 45.6618 8.43899V9.04919ZM48.5028 15.9159C48.3166 16.0823 48.0471 16.0942 47.8371 15.9833C47.0413 15.3223 46.7994 14.9627 46.4299 14.4135C46.3652 14.3174 46.2966 14.2155 46.2205 14.1051C44.6752 15.6821 43.5776 16.1537 41.5766 16.1537C39.2032 16.1537 37.3607 14.6915 37.3607 11.7634C37.3607 9.47712 38.597 7.91992 40.3642 7.15915C41.6465 6.59438 43.355 6.41958 44.8358 6.26807C45.1212 6.23888 45.3981 6.21055 45.6618 6.18046V5.81592C45.6618 5.74774 45.6623 5.67829 45.6629 5.60792C45.6677 4.98713 45.673 4.29492 45.3171 3.77532C44.9763 3.25625 44.3186 3.04229 43.7361 3.04229C42.6623 3.04229 41.7074 3.59305 41.4736 4.7342C41.4261 4.98779 41.2398 5.23742 40.9823 5.24931L38.2522 4.95609C38.0224 4.90459 37.7649 4.71835 37.8322 4.36571C38.4583 1.0532 41.4538 0.0546875 44.1323 0.0546875C45.5033 0.0546875 47.2943 0.419223 48.376 1.45735C49.6363 2.6339 49.6275 4.1721 49.6179 5.85646L49.6179 5.85805C49.6171 6.0054 49.6162 6.15386 49.6162 6.30329V10.6936C49.6162 11.8716 50.0521 12.459 50.5121 13.0789C50.5673 13.1534 50.6229 13.2283 50.6781 13.3047C50.8564 13.5583 50.8961 13.8634 50.6662 14.0536C50.0917 14.5331 49.0694 15.4246 48.5068 15.9238L48.5028 15.9159ZM16.4475 15.9556H19.2647C19.5658 15.9556 19.8075 15.7218 19.8075 15.4325V7.76938L19.8073 7.58702C19.8046 5.93417 19.801 3.78327 21.7531 3.78327C23.5498 3.78327 23.5191 5.69697 23.4942 7.25517C23.4913 7.43228 23.4886 7.60479 23.4886 7.76938L23.4925 15.4325C23.4925 15.7099 23.7144 15.9357 23.9997 15.9556H26.8129C27.1141 15.9556 27.3558 15.7218 27.3558 15.4325V7.76938C27.3558 7.70538 27.3556 7.63894 27.3554 7.57049C27.3534 6.76171 27.3506 5.67189 27.6173 4.99971C27.9066 4.27064 28.6198 3.81497 29.3013 3.81497C30.1175 3.81497 30.7475 4.08837 30.9576 5.05914C31.066 5.52479 31.0512 6.60144 31.0413 7.322L31.0413 7.32255C31.0389 7.49695 31.0368 7.65047 31.0368 7.76938V15.4325C31.0368 15.7099 31.2626 15.9357 31.544 15.9556H34.3572C34.6584 15.9556 34.9001 15.7218 34.9001 15.4325L34.904 6.30728C34.904 6.08477 34.9078 5.85777 34.9116 5.62855L34.9116 5.6282C34.9342 4.26151 34.9582 2.81601 34.1948 1.77437C33.4063 0.680765 32.1145 0.193398 30.9338 0.193398C29.2736 0.193398 27.7243 1.0453 27.0428 2.87194C26.2503 1.0453 25.1488 0.193398 23.3855 0.193398C21.65 0.193398 20.3623 1.0453 19.6768 2.87194H19.6253V0.981902C19.6055 0.720388 19.3875 0.510378 19.1141 0.498499H16.4871C16.186 0.498499 15.9443 0.728316 15.9443 1.01757V15.4761C15.9641 15.7337 16.178 15.9357 16.4475 15.9556ZM53.0436 0.981874V3.05021C53.0436 3.35928 53.2814 3.56928 53.5785 3.56928H58.4165L52.8574 11.5415C52.5206 12.0526 52.5166 12.6272 52.5166 12.964V15.06C52.5166 15.3612 52.8534 15.7099 53.1744 15.5355C56.3244 13.8634 60.1085 14.0259 62.9574 15.5197C63.3061 15.7019 63.6389 15.3493 63.6389 15.0482V12.8411C63.6112 12.544 63.5121 12.2428 63.1476 12.0368C61.5309 11.1254 59.6488 10.86 57.8658 10.9036L62.6642 4.05268C63.1079 3.43852 63.3576 3.05021 63.3615 2.75304V0.981874C63.3615 0.672813 63.1238 0.458846 62.8266 0.458846H53.5666C53.2814 0.458846 53.0436 0.66885 53.0436 0.981874ZM71.3336 0.193398C75.5139 0.193398 77.7764 3.78327 77.7764 8.34788C77.7764 12.7579 75.2762 16.2567 71.3336 16.2567C67.2287 16.2567 64.9939 12.6668 64.9939 8.19335C64.9939 3.69214 67.2564 0.193398 71.3336 0.193398ZM71.3574 3.14534C69.2811 3.14534 69.1504 5.97444 69.1504 7.73768L69.1504 7.80257C69.15 9.59544 69.1494 13.277 71.3336 13.277C73.5169 13.277 73.6199 10.2339 73.6199 8.37957C73.6199 7.15918 73.5684 5.70104 73.1999 4.54404C72.8829 3.53761 72.2529 3.14534 71.3574 3.14534ZM80.3916 15.9556H83.197C83.4981 15.9556 83.7438 15.7218 83.7477 15.4325V7.64654C83.7477 6.67181 83.7992 5.79217 84.1955 4.90857C84.5085 4.2112 85.1385 3.75157 85.824 3.75157C87.6196 3.75157 87.6027 5.72272 87.5894 7.26944C87.5883 7.39856 87.5872 7.52473 87.5872 7.64654V15.4999C87.615 15.7456 87.8289 15.9357 88.0865 15.9556H90.9116C91.189 15.9556 91.4228 15.7535 91.4545 15.4999V6.39841C91.4545 4.99971 91.4545 3.0542 90.7175 1.8972C89.925 0.649067 88.6927 0.193398 87.4287 0.193398C85.4832 0.193398 84.3777 1.13643 83.5892 3.11364H83.5377V0.902657C83.4823 0.676804 83.2802 0.510378 83.0345 0.498499H80.4233C80.1381 0.498499 79.9043 0.704539 79.8805 0.970015L79.8845 15.4325C79.8845 15.7099 80.1103 15.9357 80.3916 15.9556ZM52.9537 18.7811C54.6713 18.5773 58.428 18.1317 59.0978 18.9906C59.775 19.8578 58.3466 23.4242 57.7081 25.0185L57.707 25.0213C57.5129 25.5047 57.9289 25.6988 58.3648 25.3343C61.2057 22.9608 61.9348 17.9881 61.3563 17.2709C60.7778 16.5577 55.817 15.9436 52.7937 18.0713C52.3262 18.3962 52.4054 18.8479 52.9245 18.7845L52.9537 18.7811ZM37.3406 27.4858C43.9418 27.4858 51.6089 25.4056 56.8986 21.5066C57.7743 20.8568 57.0254 19.89 56.13 20.2704C50.2023 22.7865 43.7556 23.9989 37.8953 23.9989C29.2059 23.9989 20.7939 21.6176 13.9905 17.6592C13.3962 17.3105 12.9524 17.9207 13.4477 18.3685C19.7518 24.0623 28.0846 27.4858 37.3406 27.4858Z" fill="#FFF4DA"/>
</svg>
