<svg width="106" height="22" viewBox="0 0 106 22" fill="none" xmlns="http://www.w3.org/2000/svg">
<path fill-rule="evenodd" clip-rule="evenodd" d="M13.6037 16.7217C13.6037 14.0307 15.7852 11.8493 18.476 11.8493C21.1669 11.8493 23.3483 14.0307 23.3483 16.7217C23.3483 19.4126 21.1669 21.594 18.476 21.594C15.7852 21.594 13.6037 19.4126 13.6037 16.7217ZM0.945312 16.7217C0.945312 14.0307 3.12671 11.8498 5.81755 11.8498C8.50851 11.8498 10.69 14.0307 10.69 16.7217C10.69 19.4126 8.50851 21.594 5.81755 21.594C3.12671 21.594 0.945312 19.4126 0.945312 16.7217ZM12.1468 10.6315C14.8377 10.6315 17.0189 8.44992 17.0189 5.75885C17.0189 3.06833 14.8377 0.886719 12.1468 0.886719C9.45585 0.886719 7.27456 3.06833 7.27456 5.75885C7.27456 8.44992 9.45585 10.6315 12.1468 10.6315ZM47.4736 14.8181C48.6859 15.6586 50.0092 16.0669 51.2808 16.0669C52.4923 16.0669 53.7447 15.4383 53.7447 14.3443C53.7447 13.2365 52.1749 12.8382 50.6684 12.456C50.1886 12.3343 49.7152 12.2141 49.301 12.0733C47.586 11.4901 46.1089 10.2844 46.1089 8.33203C46.1089 5.34453 48.7688 4.11065 51.2514 4.11065C52.8244 4.11065 54.4473 4.62975 55.4995 5.37335C55.8619 5.64814 55.6412 5.96361 55.6412 5.96361L54.6368 7.39923C54.5239 7.56093 54.3265 7.70063 54.0432 7.52562C54.0235 7.51348 54.0005 7.49879 53.974 7.48196C53.6194 7.25638 52.6609 6.64671 51.2514 6.64671C49.7367 6.64671 48.8243 7.34676 48.8243 8.21444C48.8243 9.25494 50.0101 9.58219 51.3991 9.93683C53.8196 10.5898 56.4601 11.3746 56.4601 14.3443C56.4601 16.9765 53.9999 18.6032 51.2808 18.6032C49.2204 18.6032 47.466 18.0154 45.9947 16.9349C45.6882 16.6279 45.9023 16.3428 45.9023 16.3428L46.9017 14.9144C47.1051 14.6474 47.3615 14.7405 47.4736 14.8181ZM71.7219 18.3069C70.7202 18.3069 70.1421 17.3869 70.0786 16.6641L70.0784 16.6625C69.1288 17.92 67.2116 18.6027 65.4525 18.6027C61.454 18.6027 58.2127 15.3586 58.2127 11.3566C58.2127 7.35476 61.454 4.11086 65.4525 4.11086C67.2116 4.11086 68.9658 4.6801 70.0786 6.05159V5.00428H70.0807C70.0929 4.78714 70.2723 4.61322 70.4919 4.61322H72.3079C72.5273 4.61322 72.7069 4.78714 72.7187 5.00428H72.7211V17.8934C72.7211 18.1207 72.5351 18.3069 72.3079 18.3069H71.7219ZM60.855 11.3566C60.855 13.9582 62.9167 16.0667 65.4596 16.0667C68.0027 16.0667 70.064 13.9582 70.064 11.3566C70.064 8.75554 68.0027 6.64684 65.4596 6.64684C62.9167 6.64684 60.855 8.75554 60.855 11.3566ZM103.153 16.6641C103.216 17.3869 103.794 18.307 104.797 18.307H105.382C105.61 18.307 105.796 18.1208 105.796 17.8934V5.00428H105.793C105.782 4.78714 105.602 4.61322 105.382 4.61322H103.567C103.347 4.61322 103.167 4.78714 103.156 5.00428H103.153V6.05159C102.04 4.6801 100.286 4.11086 98.5273 4.11086C94.5286 4.11086 91.2873 7.35477 91.2873 11.3566C91.2873 15.3587 94.5286 18.6026 98.5273 18.6026C100.286 18.6026 102.204 17.9199 103.153 16.6625V16.6641ZM98.5339 16.0667C95.9911 16.0667 93.9296 13.9581 93.9296 11.3566C93.9296 8.75554 95.9911 6.64684 98.5339 6.64684C101.078 6.64684 103.139 8.75554 103.139 11.3566C103.139 13.9581 101.078 16.0667 98.5339 16.0667ZM88.9908 10.4378C88.9908 6.67819 86.621 4.14191 82.8417 4.14191C81.0376 4.14191 79.5587 5.18593 79.0364 6.08276C78.9235 5.38151 78.5515 4.64439 77.3979 4.64439H76.8098C76.5824 4.64439 76.3967 4.83073 76.3967 5.0581V16.6963V16.6981V17.9483H76.3989C76.4108 18.1651 76.5904 18.3392 76.81 18.3392H78.626C78.6538 18.3392 78.6811 18.3359 78.7075 18.3308C78.7195 18.3284 78.7306 18.3237 78.7423 18.3204L78.7551 18.3167C78.7645 18.314 78.7739 18.3114 78.7827 18.3077C78.7989 18.301 78.8135 18.2921 78.8286 18.2837C78.8359 18.2791 78.8437 18.276 78.8507 18.2713C78.8689 18.2596 78.8855 18.2455 78.9016 18.2311C78.9042 18.2285 78.9073 18.2267 78.91 18.2242C78.928 18.2068 78.9445 18.1875 78.9591 18.1675C79.0045 18.105 79.0323 18.0295 79.0368 17.9483H79.0392V10.3344C79.0392 8.31522 80.675 6.67819 82.6927 6.67819C84.7104 6.67819 86.3463 8.31522 86.3463 10.3344L86.3479 16.6986L86.3483 16.6963C86.3483 16.6991 86.3485 16.7019 86.3488 16.7048C86.349 16.7078 86.3492 16.7108 86.3492 16.7138V17.9483H86.3517C86.3637 18.1651 86.543 18.3392 86.7626 18.3392H88.5787C88.6066 18.3392 88.6337 18.3359 88.66 18.3308C88.6708 18.3288 88.6807 18.3245 88.6912 18.3215L88.7025 18.3183C88.7078 18.3169 88.713 18.3154 88.7182 18.3138C88.7241 18.312 88.73 18.31 88.7356 18.3077C88.7505 18.3016 88.764 18.293 88.7781 18.2851L88.7825 18.2827L88.7882 18.2798L88.7928 18.2776L88.7975 18.2751L88.8008 18.2732L88.8038 18.2713C88.8206 18.2602 88.836 18.2469 88.8511 18.2338C88.8549 18.2302 88.8592 18.2276 88.8628 18.224C88.8801 18.2073 88.8954 18.1894 88.9094 18.1706L88.911 18.1686L88.9126 18.1666C88.9573 18.1048 88.9847 18.03 88.9895 17.9494C88.9895 17.9488 88.9896 17.9483 88.9896 17.9483H88.9921L88.9908 10.4378ZM42.1354 18.3069C41.1339 18.3069 40.5557 17.3869 40.4922 16.6641L40.4919 16.6625C39.5424 17.92 37.6253 18.6027 35.8662 18.6027C31.8677 18.6027 28.6262 15.3586 28.6262 11.3566C28.6262 7.35476 31.8677 4.11086 35.8662 4.11086C37.6253 4.11086 39.3795 4.6801 40.4922 6.05159V5.00428H40.4944C40.5065 4.78714 40.6859 4.61322 40.9055 4.61322H42.7215C42.9411 4.61322 43.1204 4.78714 43.1323 5.00428H43.1349V17.8934C43.1349 18.1207 42.9487 18.3069 42.7215 18.3069H42.1354ZM31.2686 11.3566C31.2686 13.9582 33.3302 16.0667 35.8733 16.0667C38.4162 16.0667 40.4776 13.9582 40.4776 11.3566C40.4776 8.75554 38.4162 6.64684 35.8733 6.64684C33.3302 6.64684 31.2686 8.75554 31.2686 11.3566Z" fill="#FFF4DA"/>
</svg>
