<svg width="136" height="30" viewBox="0 0 136 30" fill="none" xmlns="http://www.w3.org/2000/svg">
<path fill-rule="evenodd" clip-rule="evenodd" d="M7.74765 7.88476C8.0453 7.56231 8.0701 7.06625 8.0701 6.7686V3.46975C8.0701 2.55202 8.0701 2.00635 8.11971 1.63429C8.14451 1.43587 8.24372 1.18783 8.29333 1.06382C8.31813 1.01421 8.29333 1.01421 8.26853 1.03901L1.02593 8.40563C1.00112 8.43044 1.00112 8.45524 1.05073 8.43044C1.17475 8.38083 1.42278 8.28161 1.62121 8.25681C1.99326 8.2072 2.53894 8.2072 3.45666 8.2072H6.6315C6.92914 8.2072 7.42521 8.1824 7.74765 7.88476ZM13.3532 27.3306C13.5268 27.7771 13.9733 28.4964 14.8166 29.0421C15.4863 29.5133 16.5033 29.9598 17.8674 29.9598C17.8674 29.9598 24.2171 30.3319 25.2837 22.6924C25.3581 22.6924 26.2758 14.8545 24.7628 6.7686C24.1743 3.6674 21.3132 3.21054 19.7808 2.96584C19.6342 2.94242 19.4996 2.92094 19.3805 2.89927C17.9419 2.65124 15.0895 2.15517 15.0895 2.15517C15.0895 2.15517 14.767 0.617354 13.254 0.245303C13.2013 0.232123 13.1525 0.21972 13.1067 0.208097C12.8941 0.154097 12.7476 0.116892 12.5843 0.096482C12.3115 0.0716783 12.0138 0.046875 11.7658 0.046875H11.1705C9.95516 0.046875 9.13665 0.815781 9.01263 1.73351V1.88233V6.96703C9.01263 7.63672 8.91342 8.2072 8.49176 8.60406C8.16931 8.9017 7.67324 9.12493 6.80512 9.12493H1.89405H1.74523C0.802696 9.24895 0.0585938 10.0675 0.0585938 11.2828C0.0597695 11.2969 0.0609453 11.3111 0.0621264 11.3253C0.0858603 11.6113 0.111728 11.9229 0.182611 12.3246C0.32087 13.2529 0.537769 14.2284 0.695539 14.9379C0.735896 15.1194 0.772383 15.2835 0.802696 15.425C1.44759 18.2774 2.68776 19.2943 2.68776 19.2943C4.52321 21.1794 7.17718 21.9731 9.68232 21.8243C9.75673 21.8243 10.0048 21.7995 10.228 21.7499C10.4512 21.7003 10.6497 21.6259 10.7985 21.5514C12.3363 20.6089 13.1052 17.1364 13.1052 17.1364C13.2788 19.4432 15.8832 20.2617 16.9249 20.3857C16.9497 20.3857 17.297 20.4353 17.669 20.5097C17.6987 20.5171 17.7286 20.5245 17.7586 20.532C18.0297 20.5992 18.3089 20.6684 18.4875 20.7577C19.8269 21.353 20.8439 22.6924 20.8439 24.2054C20.8439 25.892 19.4797 27.2562 17.793 27.2562C17.1482 27.2562 16.5529 27.0082 16.1064 26.5617C15.8584 26.3137 15.7096 25.9665 15.7096 25.5944C15.7096 25.2472 15.908 24.9247 16.156 24.7263C16.3471 24.5564 16.72 24.4956 16.9012 24.4661C16.9316 24.4611 16.9567 24.457 16.9745 24.4535C17.0985 24.4286 17.2722 24.379 17.3962 24.3046C17.7434 24.1062 17.9667 23.759 17.9667 23.3373C17.9667 22.7172 17.4706 22.2211 16.8505 22.2211C14.767 22.2211 13.0804 23.9078 13.0804 25.9665C13.0804 26.4377 13.1796 26.909 13.3532 27.3306ZM18.7604 13.664C19.0084 13.0439 19.7029 12.7214 20.5214 12.7958C21.3399 12.8951 21.9352 13.3663 22.0344 14.0608C22.0344 14.0918 22.036 14.1244 22.0375 14.1569C22.0422 14.2546 22.0468 14.3523 22.0096 14.4081C21.96 14.4825 21.9104 14.5073 21.8608 14.5073C21.5384 14.5569 21.0423 14.5073 20.323 14.4329C19.6037 14.3585 19.1076 14.284 18.81 14.1352C18.7604 14.1104 18.7108 14.0856 18.686 14.0112C18.6612 13.9368 18.7108 13.788 18.7604 13.664ZM33.7659 20.9813L32.9226 21.1549L32.9474 21.8494H46.8621L47.2094 16.0206H46.4157C45.7708 17.5832 45.2995 18.6249 44.853 19.2946C44.0345 20.51 43.6377 20.758 41.6534 20.758C39.2475 20.758 39.1731 20.51 39.1731 18.3025V13.5402H39.8428C41.6534 13.5402 41.9758 13.6642 42.2735 14.2843C42.6207 15.0036 42.8192 15.4997 43.0424 16.2686H43.7865V9.86932H43.0424C42.8192 10.663 42.6207 11.1343 42.2735 11.7544C41.9758 12.3001 41.579 12.4985 39.8428 12.4985H39.1731V6.17361C39.5451 6.0744 40.1652 5.92558 41.4302 5.92558C43.1416 5.92558 43.6625 6.02479 44.4562 7.16575C44.8282 7.71143 45.2251 8.43073 45.8452 9.79492H46.6141L46.3661 4.85903H32.9226V5.55353L33.7659 5.72715C34.4852 5.90078 34.7084 6.02479 34.7084 7.513V19.1954C34.7084 20.6836 34.51 20.7828 33.7659 20.9813ZM47.8295 9.91893C48.4495 10.1174 48.7224 10.4646 49.2929 11.8536L53.3358 21.8494H55.4193L59.2142 12.1264C59.8095 10.5142 60.0824 10.1422 60.7272 9.91893L61.1985 9.77011V9.12522H56.6595V9.77011L57.3292 9.94374C57.85 10.0678 58.0981 10.3406 58.0981 10.8863C58.0981 11.2335 57.9989 11.6552 57.7756 12.2505L55.7914 17.9056H55.6673L53.6087 12.2505C53.4102 11.7048 53.2862 11.2831 53.2862 10.9359C53.2862 10.3406 53.5342 10.0926 54.0551 9.94374L54.7248 9.77011V9.12522H47.3582V9.77011L47.8295 9.91893ZM67.0273 8.80278C63.7781 8.80278 60.628 11.1591 60.628 15.4253C60.628 19.5923 62.7363 22.1222 67.0025 22.1718C69.458 22.1718 71.3183 20.882 72.1864 19.9395V19.121C71.2687 19.5923 70.1029 20.0387 68.5899 20.0387C66.06 20.0387 64.547 18.9474 64.4726 14.9292H72.5833C72.5089 10.4894 70.4006 8.80278 67.0273 8.80278ZM68.6643 13.7635L64.4726 13.9867C64.5718 10.9111 65.5639 9.7205 66.8041 9.7205C68.2675 9.7205 68.6643 10.8119 68.6643 13.7635ZM82.7775 8.72837C81.1404 8.72837 79.7267 9.94374 79.0322 10.6878L78.9578 10.663L79.0074 8.9764L78.7345 8.77797L73.5754 9.37326V9.86932L74.3939 10.415L74.4131 10.428C75.0907 10.8877 75.2124 10.9703 75.2124 12.0024V19.6171C75.2124 20.6588 75.1132 20.7828 74.2947 21.0061L73.6498 21.1797V21.8494H80.7188V21.1797L79.9003 21.0061C79.1562 20.882 79.057 20.758 79.057 19.6171V11.68C79.3794 11.3823 79.9003 11.0599 80.3467 11.0599C80.57 11.0599 80.8924 11.1343 81.0412 11.4071C81.3141 12.0768 82.0086 12.5481 82.7775 12.5481C83.844 12.5481 84.6873 11.7048 84.6873 10.6382C84.6873 9.57168 83.8192 8.72837 82.7775 8.72837ZM86.0763 21.0061L85.4314 21.1797H85.4811V21.8494H92.302V21.1797L91.7067 21.0309C90.9626 20.8324 90.8882 20.7828 90.8882 19.6171V11.3823L90.8975 11.3802C91.4437 11.2561 92.3069 11.0599 93.1701 11.0599C94.3111 11.0599 94.8568 11.5312 94.8568 13.0194V19.5923C94.8568 20.7332 94.7823 20.8076 94.0382 21.0061L93.443 21.1549V21.8246H100.264V21.1549L99.619 20.9813C98.8253 20.7828 98.7261 20.6588 98.7261 19.5923V12.052C98.7261 9.84452 97.6099 8.77797 95.5264 8.77797C93.7406 8.77797 92.1284 9.59649 90.8386 10.5142H90.7394L90.789 8.9516L90.5162 8.77797L85.357 9.37326V9.86932L86.1756 10.415L86.1947 10.428C86.8723 10.8877 86.9941 10.9703 86.9941 12.0024V19.6171C86.9941 20.6588 86.8949 20.7828 86.0763 21.0061ZM107.358 8.80278C104.059 8.80278 100.735 10.8119 100.735 15.4997C100.735 19.9891 103.811 22.1222 107.358 22.1222C110.731 22.1222 114.005 20.0635 114.005 15.3757C114.005 10.9359 110.905 8.80278 107.358 8.80278ZM107.258 9.74531C108.945 9.74531 109.888 10.6878 109.888 15.6237C109.888 20.3116 108.871 21.1797 107.407 21.1797C105.621 21.1797 104.803 20.0883 104.803 15.078C104.803 10.8615 105.721 9.74531 107.258 9.74531ZM116.113 10.5638V18.749C116.113 21.1549 117.304 22.1222 119.511 22.1222C121.57 22.1222 122.785 21.2293 123.381 20.6836V19.9891C122.934 20.0883 122.215 20.2124 121.62 20.2124C120.404 20.2124 120.032 19.7163 120.032 18.5009V10.5638H122.959L123.281 9.12522H120.032V5.85117H118.643C117.949 7.81064 116.485 9.22444 114.575 9.96854V10.5638H116.113ZM130.276 8.80278C127.027 8.80278 123.877 11.1591 123.877 15.4253C123.877 19.5923 125.985 22.1222 130.276 22.1718C132.732 22.1718 134.592 20.882 135.46 19.9395V19.121C134.542 19.5923 133.376 20.0387 131.863 20.0387C129.334 20.0387 127.821 18.9474 127.746 14.9292H135.832C135.758 10.4894 133.649 8.80278 130.276 8.80278ZM131.913 13.7635L127.721 13.9867C127.821 10.9111 128.813 9.7205 130.053 9.7205C131.516 9.7205 131.913 10.8119 131.913 13.7635Z" fill="#FFF4DA"/>
</svg>
