<svg width="32" height="32" viewBox="0 0 32 32" fill="none" xmlns="http://www.w3.org/2000/svg">
<path d="M31.6677 24.6102C30.5277 24.9002 29.8227 24.6227 29.1902 23.6727C27.7702 21.5452 26.2027 19.5152 24.6902 17.4477C24.4952 17.1802 24.2927 16.9177 24.0402 16.5852C22.2502 19.0002 20.4627 21.3002 18.7852 23.6927C18.1852 24.5477 17.5552 24.9202 16.4352 24.6177L23.1652 15.5852L16.9002 7.42766C17.9777 7.21766 18.7227 7.32516 19.3827 8.29016C20.8402 10.4202 22.4477 12.4477 24.0502 14.5927C25.6627 12.4552 27.2502 10.4252 28.7502 8.31516C29.3527 7.46016 30.0002 7.13516 31.0827 7.45016C30.2627 8.53766 29.4602 9.60766 28.6527 10.6702C27.5627 12.1027 26.4927 13.5527 25.3627 14.9552C24.9602 15.4552 25.0252 15.7802 25.3852 16.2527C27.4752 19.0002 29.5402 21.7752 31.6677 24.6102ZM0.332695 15.4352C0.512695 14.5327 0.632695 13.6127 0.882695 12.7277C2.3827 7.37016 8.53269 5.14266 12.7577 8.46266C15.2327 10.4102 15.8477 13.1552 15.7252 16.2502H1.7752C1.5652 21.8027 5.5627 25.1552 10.6577 23.4452C12.4452 22.8452 13.4977 21.4452 14.0252 19.6952C14.2927 18.8177 14.7352 18.6802 15.5602 18.9302C15.1377 21.1202 14.1802 22.9502 12.1802 24.0952C9.18019 25.8102 4.8977 25.2552 2.6452 22.8727C1.3152 21.4727 0.750195 19.7302 0.500195 17.8477C0.462695 17.5477 0.385195 17.2527 0.325195 16.9552C0.330195 16.4485 0.332695 15.9418 0.332695 15.4352ZM1.8002 15.0627H14.4077C14.3252 11.0477 11.8252 8.19516 8.40769 8.17016C4.6577 8.14016 1.9627 10.9252 1.8002 15.0627Z" fill="#FFF4DA"/>
</svg>
