<svg width="113" height="38" viewBox="0 0 113 38" fill="none" xmlns="http://www.w3.org/2000/svg">
<path d="M0.621094 0.742188H24.8459V12.8546H12.7335L0.621094 0.742188ZM0.621094 12.8546H12.7335L24.8459 24.967H0.621094V12.8546ZM0.621094 24.967H12.7335V37.0795L0.621094 24.967Z" fill="#FFF4DA"/>
<path d="M38.5144 10.2977H48.3065V13.4094H42.2207V17.7335H48.3065V20.7764H42.2207V26.3131H38.5144V10.2977ZM50.3198 15.2852H53.8205V17.5961C54.0034 16.802 54.3774 16.1924 54.9416 15.7657C55.5201 15.3229 56.1624 15.1023 56.8634 15.1023C57.2297 15.1023 57.5351 15.1334 57.7783 15.1938V18.4429C57.4292 18.4007 57.0779 18.378 56.726 18.3741C55.7651 18.3741 55.0413 18.6861 54.5525 19.3118C54.0654 19.9219 53.8205 20.8369 53.8205 22.0577V26.3131H50.3215V15.2852H50.3198ZM63.3045 26.6107C62.2372 26.6107 61.3062 26.3586 60.5132 25.8554C59.7351 25.3522 59.1167 24.6379 58.7287 23.7961C58.317 22.9122 58.1097 21.9119 58.1097 20.7992C58.1097 19.7008 58.3248 18.7089 58.7515 17.825C59.1516 16.971 59.7866 16.2489 60.5819 15.7429C61.3893 15.2398 62.3125 14.9876 63.3505 14.9876C64.128 14.9876 64.8229 15.1561 65.4325 15.4914C66.0421 15.8277 66.4998 16.2855 66.8052 16.864V15.2852H70.2826V26.3131H66.8052V24.757C66.4998 25.3062 66.0271 25.7556 65.3865 26.107C64.7459 26.4467 64.0299 26.6196 63.3045 26.6107ZM64.3114 23.7047C65.1499 23.7047 65.7982 23.4304 66.256 22.8812C66.7137 22.332 66.9426 21.6376 66.9426 20.7992C66.9426 19.9757 66.7137 19.2891 66.256 18.7399C65.7982 18.1907 65.1499 17.9164 64.3114 17.9164C63.5173 17.9164 62.8778 18.1829 62.3896 18.7172C61.9169 19.2514 61.6802 19.9446 61.6802 20.7992C61.6802 21.6537 61.9169 22.3547 62.3896 22.9039C62.8778 23.4381 63.5184 23.7047 64.3114 23.7047ZM72.7309 15.2852H76.2315V16.8867C76.4765 16.3215 76.8722 15.8638 77.4208 15.5141C77.986 15.1644 78.6416 14.9876 79.3886 14.9876C81.1276 14.9876 82.2797 15.6659 82.8433 17.0242C83.1536 16.4085 83.6391 15.8992 84.2392 15.5601C84.881 15.1738 85.618 14.976 86.3667 14.9876C88.9752 14.9876 90.2791 16.4817 90.2791 19.4719V26.3131H86.7557V20.1126C86.7557 19.3661 86.6183 18.8169 86.344 18.4656C86.0691 18.1153 85.6574 17.9391 85.1082 17.9391C84.5136 17.9391 84.0558 18.1453 83.7355 18.557C83.4152 18.9538 83.255 19.6471 83.255 20.639V26.3131H79.7317V20.0898C79.7317 19.3428 79.5948 18.8008 79.3199 18.4656C79.0617 18.1153 78.6566 17.9391 78.1085 17.9391C77.4978 17.9391 77.0323 18.1453 76.712 18.557C76.3917 18.9538 76.2315 19.6471 76.2315 20.639V26.3131H72.732V15.2852H72.7309ZM103.429 20.2273C103.429 20.6994 103.398 21.2109 103.336 21.7601H95.1929C95.2239 22.4772 95.4672 23.0253 95.925 23.4076C96.3827 23.7883 97.0017 23.9795 97.7781 23.9795C98.8615 23.9795 99.5481 23.6509 99.8374 22.9953H103.269C103.101 24.0787 102.506 24.9549 101.484 25.6265C100.478 26.2821 99.2422 26.6107 97.7781 26.6107C95.8873 26.6107 94.3999 26.0992 93.3165 25.0773C92.2492 24.0549 91.715 22.6296 91.715 20.7992C91.715 19.6094 91.9588 18.5797 92.447 17.7102C92.9186 16.8419 93.6457 16.1392 94.529 15.697C95.4295 15.2248 96.4741 14.9876 97.665 14.9876C98.7928 14.9876 99.7914 15.2087 100.661 15.6515C101.545 16.0943 102.225 16.7116 102.697 17.5046C103.186 18.2988 103.429 19.2059 103.429 20.2273ZM99.9731 19.5867C99.9582 18.8546 99.7526 18.2971 99.3552 17.9164C98.9596 17.5357 98.3866 17.3445 97.6395 17.3445C96.8925 17.3445 96.2979 17.5501 95.8551 17.9624C95.4284 18.3592 95.2073 18.9 95.1912 19.5867H99.9731ZM104.973 15.2852H108.474V17.5961C108.656 16.802 109.03 16.1924 109.595 15.7657C110.142 15.3345 110.819 15.1007 111.516 15.1023C111.882 15.1023 112.188 15.1334 112.431 15.1938V18.4429C112.082 18.4007 111.731 18.378 111.379 18.3741C110.418 18.3741 109.694 18.6861 109.206 19.3118C108.717 19.9219 108.474 20.8369 108.474 22.0577V26.3131H104.973V15.2852Z" fill="#FFF4DA"/>
</svg>
