<svg width="113" height="38" viewBox="0 0 113 38" fill="none" xmlns="http://www.w3.org/2000/svg">
<path d="M0.621216 0.742432H24.8461V12.8549H12.7336L0.621216 0.742432ZM0.621216 12.8549H12.7336L24.8461 24.9673H0.621216V12.8549ZM0.621216 24.9673H12.7336V37.0797L0.621216 24.9673Z" fill="#2C2C2C"/>
<path d="M38.5145 10.298H48.3067V13.4096H42.2208V17.7338H48.3067V20.7767H42.2208V26.3134H38.5145V10.298ZM50.3199 15.2855H53.8206V17.5963C54.0035 16.8022 54.3775 16.1926 54.9417 15.7659C55.5202 15.3231 56.1625 15.1026 56.8635 15.1026C57.2298 15.1026 57.5352 15.1336 57.7785 15.194V18.4431C57.4293 18.401 57.078 18.3783 56.7261 18.3744C55.7652 18.3744 55.0414 18.6864 54.5527 19.312C54.0656 19.9222 53.8206 20.8371 53.8206 22.0579V26.3134H50.3216V15.2855H50.3199ZM63.3046 26.611C62.2373 26.611 61.3063 26.3588 60.5133 25.8556C59.7352 25.3524 59.1168 24.6381 58.7289 23.7963C58.3171 22.9125 58.1099 21.9122 58.1099 20.7994C58.1099 19.7011 58.3249 18.7091 58.7516 17.8252C59.1517 16.9712 59.7868 16.2491 60.582 15.7432C61.3894 15.24 62.3127 14.9879 63.3506 14.9879C64.1281 14.9879 64.823 15.1563 65.4326 15.4916C66.0422 15.828 66.4999 16.2857 66.8053 16.8643V15.2855H70.2827V26.3134H66.8053V24.7573C66.4999 25.3064 66.0272 25.7559 65.3866 26.1072C64.746 26.4469 64.03 26.6198 63.3046 26.611ZM64.3115 23.7049C65.15 23.7049 65.7984 23.4306 66.2561 22.8814C66.7139 22.3322 66.9427 21.6379 66.9427 20.7994C66.9427 19.9759 66.7139 19.2893 66.2561 18.7401C65.7984 18.1909 65.15 17.9166 64.3115 17.9166C63.5174 17.9166 62.8779 18.1832 62.3897 18.7174C61.917 19.2516 61.6804 19.9449 61.6804 20.7994C61.6804 21.6539 61.917 22.355 62.3897 22.9041C62.8779 23.4384 63.5185 23.7049 64.3115 23.7049ZM72.731 15.2855H76.2317V16.887C76.4766 16.3217 76.8723 15.864 77.4209 15.5143C77.9861 15.1646 78.6417 14.9879 79.3887 14.9879C81.1277 14.9879 82.2798 15.6662 82.8434 17.0244C83.1538 16.4087 83.6392 15.8995 84.2394 15.5603C84.8811 15.1741 85.6181 14.9762 86.3668 14.9879C88.9753 14.9879 90.2792 16.4819 90.2792 19.4722V26.3134H86.7558V20.1128C86.7558 19.3663 86.6184 18.8172 86.3441 18.4658C86.0692 18.1156 85.6575 17.9394 85.1083 17.9394C84.5137 17.9394 84.0559 18.1455 83.7356 18.5573C83.4153 18.954 83.2552 19.6473 83.2552 20.6393V26.3134H79.7318V20.0901C79.7318 19.3431 79.5949 18.8011 79.32 18.4658C79.0618 18.1156 78.6567 17.9394 78.1086 17.9394C77.4979 17.9394 77.0324 18.1455 76.7121 18.5573C76.3918 18.954 76.2317 19.6473 76.2317 20.6393V26.3134H72.7321V15.2855H72.731ZM103.43 20.2275C103.43 20.6997 103.399 21.2112 103.337 21.7603H95.193C95.2241 22.4774 95.4673 23.0255 95.9251 23.4079C96.3828 23.7886 97.0018 23.9798 97.7782 23.9798C98.8616 23.9798 99.5482 23.6512 99.8375 22.9956H103.269C103.101 24.079 102.506 24.9551 101.484 25.6268C100.478 26.2823 99.2423 26.611 97.7782 26.611C95.8874 26.611 94.4 26.0995 93.3166 25.0776C92.2493 24.0551 91.7151 22.6298 91.7151 20.7994C91.7151 19.6096 91.9589 18.58 92.4471 17.7105C92.9187 16.8421 93.6458 16.1394 94.5291 15.6972C95.4296 15.225 96.4743 14.9879 97.6652 14.9879C98.7929 14.9879 99.7915 15.209 100.661 15.6518C101.545 16.0945 102.225 16.7119 102.697 17.5049C103.186 18.299 103.43 19.2062 103.43 20.2275ZM99.9733 19.5869C99.9583 18.8548 99.7527 18.2973 99.3554 17.9166C98.9597 17.5359 98.3867 17.3447 97.6397 17.3447C96.8927 17.3447 96.298 17.5503 95.8553 17.9626C95.4285 18.3594 95.2074 18.9003 95.1914 19.5869H99.9733ZM104.973 15.2855H108.474V17.5963C108.657 16.8022 109.031 16.1926 109.595 15.7659C110.142 15.3348 110.819 15.1009 111.517 15.1026C111.882 15.1026 112.188 15.1336 112.431 15.194V18.4431C112.082 18.401 111.731 18.3783 111.379 18.3744C110.418 18.3744 109.694 18.6864 109.206 19.312C108.717 19.9222 108.474 20.8371 108.474 22.0579V26.3134H104.973V15.2855Z" fill="#2C2C2C"/>
</svg>
