<svg width="32" height="32" viewBox="0 0 32 32" fill="none" xmlns="http://www.w3.org/2000/svg">
<g clip-path="url(#clip0_535_2298)">
<mask id="mask0_535_2298" style="mask-type:luminance" maskUnits="userSpaceOnUse" x="0" y="0" width="32" height="32">
<path d="M0.979736 0.979492H31.0277V31.0275H0.979736V0.979492Z" fill="white"/>
</mask>
<g mask="url(#mask0_535_2298)">
<path d="M0.979736 0.979492H31.0277V31.0275H0.979736V0.979492Z" fill="#FFF4DA"/>
</g>
<path d="M20.6263 23.4711C21.2039 24.4092 21.8315 25.3082 23.1611 25.3082C24.2779 25.3082 24.8639 24.7531 24.8639 23.9852C24.8639 23.0662 24.2579 22.7399 23.0293 22.2049L22.3557 21.9177C20.4117 21.0932 19.1189 20.0598 19.1189 17.8772C19.1189 15.8656 20.6588 14.3348 23.0651 14.3348C24.7787 14.3348 26.0099 14.9282 26.8979 16.4824L24.7996 17.8237C24.338 16.9991 23.8389 16.6744 23.0651 16.6744C22.2755 16.6744 21.7756 17.1727 21.7756 17.8237C21.7756 18.6283 22.2764 18.9539 23.4324 19.4522L24.1059 19.7393C26.3971 20.715 27.6892 21.7116 27.6892 23.9518C27.6892 26.3657 25.7828 27.6887 23.2237 27.6887C20.7205 27.6887 19.2991 26.4325 18.5079 24.8775L20.6263 23.4711ZM10.9558 23.5395C11.3781 24.2957 12.02 24.8775 12.9431 24.8775C13.8262 24.8775 14.3345 24.5286 14.3345 23.1722V14.334H17.1164V23.5997C17.1164 26.4099 15.4864 27.6887 13.1059 27.6887C10.9549 27.6887 9.40244 26.2313 8.76978 24.8775L10.9558 23.5395Z" fill="#007A78"/>
</g>
<defs>
<clipPath id="clip0_535_2298">
<rect width="32" height="32" fill="white"/>
</clipPath>
</defs>
</svg>
