<svg width="32" height="32" viewBox="0 0 32 32" fill="none" xmlns="http://www.w3.org/2000/svg">
<path fill-rule="evenodd" clip-rule="evenodd" d="M30.8145 19.196C30.702 18.4665 30.0892 17.9887 29.3765 17.9565C29.1185 17.9447 28.8565 17.9718 28.5993 18.0045C28.2885 18.044 27.9815 18.114 27.6715 18.1602C27.4572 18.1922 27.24 18.207 27.026 18.229L27.0208 18.2013C27.4202 17.4468 27.8365 16.7005 28.2145 15.9353C28.5042 15.3483 28.7522 14.74 29.0085 14.1368C29.4325 13.1372 29.7712 12.1067 30.0518 11.0595C30.3205 10.0567 30.5505 9.043 30.6227 8.00275C30.6517 7.58725 30.6718 7.17 30.6695 6.754C30.6675 6.42225 30.6318 6.09 30.5985 5.75925C30.561 5.38025 30.4465 5.021 30.288 4.67525C30.079 4.21975 29.755 3.846 29.414 3.491C29.141 3.20675 28.8407 2.94775 28.543 2.689C28.1185 2.31975 27.6413 2.025 27.1455 1.76325C26.5839 1.46483 25.9889 1.23405 25.373 1.07575C24.9997 0.9805 24.618 0.90975 24.24 0.83425C24.104 0.80675 23.9678 0.75 23.8318 0.75H21.2715C21.179 0.75 21.0872 0.79775 20.994 0.80825C20.381 0.8765 19.7752 0.992 19.187 1.17425C18.967 1.2425 18.766 1.1995 18.557 1.18025C18.3967 1.1655 18.2393 1.1225 18.079 1.1145C17.4685 1.084 16.8573 1.03925 16.247 1.04575C15.6622 1.05175 15.0835 1.148 14.5175 1.30875C14.0437 1.44325 13.5802 1.6075 13.1558 1.8565C12.974 1.963 12.83 1.943 12.642 1.88875C12.0103 1.7065 11.374 1.53525 10.7323 1.3915C10.3323 1.302 9.921 1.2575 9.5125 1.21475C9.12051 1.17401 8.72701 1.14949 8.333 1.14125C7.9485 1.133 7.56125 1.13325 7.1785 1.16725C6.56886 1.22025 5.96794 1.34727 5.389 1.5455C4.74782 1.76443 4.14871 2.09121 3.6175 2.51175C3.07575 2.9405 2.64125 3.464 2.29175 4.06175C1.9235 4.6925 1.671 5.36775 1.514 6.077C1.429 6.46125 1.37525 6.85625 1.317 7.2465C1.29875 7.368 1.5 7.4895 1.25 7.6105V9.309C1.5 9.422 1.302 9.53475 1.3165 9.648C1.35125 9.92025 1.382 10.1947 1.428 10.465C1.50075 10.8927 1.587 11.3193 1.675 11.7443C1.79719 12.3383 1.92603 12.9309 2.0615 13.522C2.1605 13.952 2.27325 14.3795 2.39125 14.8048C2.5715 15.4543 2.749 16.105 2.95275 16.7472C3.142 17.344 3.35875 17.9323 3.57375 18.5205C3.8715 19.3342 4.228 20.1217 4.6555 20.8765C5.02525 21.53 5.44775 22.142 6.0145 22.6455C6.388 22.9773 6.80375 23.2323 7.28775 23.3598C7.668 23.4598 8.0545 23.4718 8.44375 23.392C8.88723 23.3018 9.30153 23.1033 9.64975 22.8143C9.6905 22.7808 9.73525 22.7552 9.7835 22.8167C9.96725 23.0495 10.2133 23.2048 10.4705 23.339C11.1648 23.701 11.9212 23.8095 12.6897 23.8538C12.8757 23.8645 13.0638 23.8378 13.2513 23.8325C13.6165 23.8225 13.9715 23.7512 14.3208 23.6502C14.5037 23.5972 14.6825 23.53 14.8687 23.4673C14.8785 23.6655 14.891 23.8565 14.8968 24.0475L14.9228 25.089C14.9275 25.2475 14.9338 25.4065 14.9485 25.5643C14.9862 25.971 15.0232 26.378 15.0717 26.7835C15.1055 27.063 15.1405 27.3447 15.2063 27.6175C15.3381 28.1681 15.5186 28.7059 15.7458 29.2245C15.9632 29.7279 16.2974 30.1722 16.7208 30.5208C17.2758 30.9797 17.9263 31.1755 18.6287 31.2118C18.9193 31.227 19.218 31.2127 19.504 31.1607C19.9586 31.08 20.4082 30.9735 20.8507 30.842C21.7485 30.571 22.5245 30.103 23.1042 29.3468C23.4342 28.9158 23.7052 28.4495 23.8792 27.9347C24.0227 27.5095 24.158 27.08 24.2655 26.6448C24.3505 26.3018 24.3925 25.948 24.4443 25.5977C24.4785 25.366 24.499 25.132 24.5205 24.8985C24.5555 24.5193 24.5913 24.1402 24.6165 23.7603C24.634 23.4958 24.6332 23.23 24.6437 22.965C24.647 22.8843 24.66 22.804 24.6675 22.7235C24.6745 22.649 24.712 22.6233 24.788 22.6245C25.0557 22.6285 25.324 22.6355 25.591 22.6235C25.8902 22.61 26.1922 22.5972 26.4867 22.5478C26.9064 22.4777 27.3226 22.3886 27.7342 22.281C28.22 22.154 28.6655 21.9265 29.0942 21.6672C29.5938 21.3655 30.049 21.0115 30.4185 20.5555C30.7398 20.1577 30.892 19.698 30.8145 19.196ZM29.9615 19.4415C29.945 19.6702 29.8403 19.8663 29.6882 20.0338C28.971 20.8245 28.0712 21.3043 27.042 21.5405C26.651 21.63 26.2475 21.6765 25.8472 21.7135C25.5053 21.7436 25.1617 21.7517 24.8188 21.7377C24.5673 21.7282 24.3177 21.6708 24.0607 21.6338C24.035 21.8688 24.0105 22.1135 23.9807 22.3577L23.861 23.294C23.8248 23.5907 23.7965 23.8885 23.7593 24.185C23.7227 24.4727 23.6772 24.7595 23.639 25.0473C23.6033 25.3153 23.577 25.5845 23.5373 25.852C23.476 26.262 23.4175 26.673 23.3375 27.0798C23.2415 27.566 23.0942 28.037 22.854 28.4755C22.561 29.0107 22.1455 29.4185 21.6168 29.7205C21.0718 30.032 20.476 30.194 19.872 30.3295C19.4445 30.4255 19.004 30.4412 18.571 30.4023C17.82 30.3342 17.179 30.013 16.6945 29.4307C16.232 28.875 15.919 28.238 15.807 27.517C15.7547 27.1738 15.7138 26.8289 15.6842 26.483C15.6511 26.0986 15.6262 25.7135 15.6095 25.328C15.5873 24.839 15.5709 24.3497 15.5603 23.8603C15.547 23.2588 15.5428 22.6572 15.5343 22.0557L15.5328 22.0327C15.2268 22.2162 14.926 22.4172 14.607 22.5828C14.2342 22.7756 13.8261 22.8907 13.4075 22.921C13.078 22.946 12.7443 22.9688 12.4163 22.9425C11.8785 22.8993 11.3412 22.815 10.8597 22.5502C10.6645 22.4427 10.4607 22.312 10.3263 22.1402C10.0037 21.7287 10.1582 21.2087 10.6445 20.9585C10.9805 20.7852 11.3472 20.713 11.7115 20.6287C12.0285 20.5568 12.3423 20.471 12.6517 20.3715C12.9572 20.2715 13.15 20.0238 13.3403 19.7808L13.6418 19.393C13.516 19.3797 13.3975 19.3662 13.279 19.3552C12.9193 19.3212 12.576 19.2222 12.2478 19.0767C11.9668 18.9525 11.9625 18.939 11.7565 19.1625C11.4125 19.536 11.078 19.9183 10.741 20.298C10.493 20.5772 10.2465 20.8582 9.99975 21.1383C9.75525 21.4153 9.52625 21.708 9.263 21.9657C8.872 22.3485 8.40075 22.5787 7.8385 22.5527C7.47775 22.5362 7.1475 22.4097 6.8505 22.203C6.2375 21.776 5.8245 21.1788 5.4485 20.5515C4.96675 19.7478 4.597 18.8915 4.2805 18.0117C4.0615 17.4037 3.8415 16.7952 3.65025 16.1785C3.4425 15.5082 3.26025 14.8295 3.081 14.151C2.94711 13.6384 2.82358 13.1231 2.7105 12.6055C2.57864 12.0177 2.45662 11.4277 2.3445 10.8357C2.27 10.436 2.22675 10.0305 2.1665 9.628C2.08525 9.0855 2.07025 8.538 2.09975 7.99325C2.126 7.5025 2.1965 7.013 2.2665 6.5255C2.3635 5.851 2.58575 5.2145 2.9055 4.6135C3.10125 4.24525 3.34425 3.9105 3.62525 3.5995C4.0865 3.089 4.64475 2.72 5.26575 2.443C5.69975 2.2495 6.15825 2.133 6.6255 2.042C7.319 1.907 8.01875 1.91225 8.71875 1.92675C9.02475 1.933 9.3295 1.98875 9.63525 2.019C10.2935 2.0845 10.9388 2.223 11.5758 2.394C12.04 2.5185 12.4948 2.67975 12.9552 2.81975C13.0015 2.83375 13.0693 2.8325 13.107 2.80775C13.731 2.4005 14.413 2.13175 15.1383 1.978C15.4135 1.91975 15.6975 1.89425 15.979 1.87625C16.3212 1.8545 16.6662 1.8345 17.0077 1.85425C17.4182 1.87775 17.8268 1.93825 18.2348 1.99425C18.4328 2.02125 18.626 2.09 18.8245 2.10875C18.9195 2.11775 19.0203 2.04825 19.1208 2.025C19.633 1.90675 20.143 1.775 20.6597 1.6815C21.0445 1.612 21.4375 1.57925 21.8288 1.55675C22.265 1.53175 22.7045 1.5135 23.1405 1.5345C23.6926 1.56184 24.2411 1.63907 24.7792 1.76525C25.4485 1.921 26.0905 2.14725 26.7008 2.46125C27.1567 2.69575 27.5903 2.96775 27.9805 3.30225C28.2362 3.52175 28.498 3.7385 28.729 3.983C29.014 4.2845 29.3048 4.58625 29.4835 4.9725C29.618 5.26375 29.714 5.56525 29.7405 5.88425C29.7735 6.28075 29.8135 6.67875 29.8097 7.07575C29.8062 7.4555 29.7545 7.835 29.7178 8.21375C29.6343 9.07725 29.4465 9.922 29.2185 10.7555C29.0278 11.444 28.8119 12.1253 28.5713 12.798C28.3515 13.4183 28.098 14.0273 27.8417 14.6337C27.6531 15.083 27.4481 15.5252 27.2272 15.9595C26.808 16.781 26.372 17.594 25.8678 18.3678C25.7808 18.5015 25.6982 18.6385 25.6133 18.775C25.8333 18.9235 26.0825 18.9757 26.3335 19.0028C26.5723 19.0287 26.8158 19.0443 27.0543 19.0265C27.436 18.9983 27.8165 18.9437 28.196 18.8905C28.572 18.838 28.9405 18.731 29.3265 18.7593C29.712 18.7873 29.9878 19.0802 29.9615 19.4415ZM24.4583 18.6033C24.2945 18.3918 24.1275 18.1828 23.9673 17.9688C23.7158 17.6327 23.535 17.2575 23.3535 16.8805C23.1815 16.5233 22.9705 16.185 22.7892 15.8317C22.473 15.2155 22.151 14.6012 21.8598 13.973C21.4935 13.1837 21.2048 12.3665 21.1138 11.4923C21.0753 11.1223 21.0655 10.7527 21.1402 10.3862C21.26 9.801 21.5658 9.34325 22.0798 9.02925C22.5565 8.738 23.0877 8.644 23.632 8.6145C23.9697 8.59625 24.309 8.61125 24.6595 8.61125L24.6478 8.552C24.4298 8.09625 24.226 7.63275 23.9875 7.18775C23.651 6.55975 23.2205 5.9935 22.741 5.4685C22.3857 5.07975 22.001 4.719 21.5795 4.40025C21.165 4.0865 20.7283 3.80625 20.2623 3.577C19.7065 3.30375 19.1278 3.0925 18.5205 2.95775C17.937 2.82825 17.3497 2.749 16.7512 2.7425C16.2407 2.737 15.7335 2.76 15.2362 2.87525C14.4858 3.049 13.7992 3.358 13.202 3.8585C12.8716 4.13562 12.5763 4.45214 12.3228 4.801C12.0238 5.21175 11.7825 5.65525 11.5763 6.12025C11.2933 6.75825 11.099 7.42225 10.9663 8.10475C10.8998 8.445 10.8478 8.78825 10.7948 9.13125C10.7762 9.25125 10.7747 9.374 10.764 9.5115C10.8562 9.4635 10.9228 9.4265 10.9908 9.3935L11.212 9.29425C11.9602 8.952 12.7355 8.73175 13.5688 8.757C13.9228 8.76775 14.2615 8.83775 14.5763 8.99275C15.18 9.2905 15.5333 9.79675 15.6868 10.4375C15.7928 10.8798 15.8652 11.3308 15.9358 11.7805C15.991 12.1318 16.0475 12.4867 16.054 12.841C16.0633 13.3587 16.037 13.8775 16.0088 14.395C15.9845 14.835 15.8935 15.2688 15.7388 15.6815C15.4588 16.4298 15.1468 17.1658 14.8553 17.9097C14.759 18.1555 14.685 18.41 14.594 18.6803C14.7345 18.6803 14.8485 18.6793 14.9625 18.6807C15.007 18.6815 15.0525 18.6828 15.0955 18.693C15.4305 18.772 15.721 18.9237 15.9593 19.1815C16.277 19.5245 16.4437 19.9248 16.4522 20.388C16.457 20.6448 16.43 20.9023 16.4312 21.159C16.4365 22.3555 16.4455 23.552 16.4555 24.7482C16.4572 24.9437 16.467 25.1395 16.481 25.3347C16.5103 25.7435 16.5398 26.1525 16.5798 26.5602C16.6077 26.8495 16.6467 27.1383 16.6925 27.4255C16.7572 27.8325 16.9425 28.1947 17.1528 28.541C17.3337 28.8388 17.569 29.0918 17.879 29.2663C18.4058 29.5627 18.973 29.5875 19.5448 29.4783C19.931 29.4045 20.3102 29.286 20.6852 29.1637C21.054 29.0454 21.3907 28.8441 21.6695 28.5753C21.9323 28.3205 22.1187 28.01 22.2445 27.6672C22.4885 27.0025 22.5645 26.3025 22.6655 25.608C22.7033 25.348 22.736 25.0872 22.7705 24.8267C22.8097 24.5303 22.8495 24.234 22.8875 23.9377C22.9155 23.717 22.941 23.4958 22.968 23.275C23.0065 22.958 23.0472 22.6412 23.084 22.324C23.1122 22.0787 23.1362 21.8325 23.1612 21.5868C23.1935 21.2728 23.2283 20.9588 23.256 20.6443C23.2775 20.4055 23.2688 20.1625 23.311 19.9282C23.3888 19.4987 23.5917 19.1332 23.9725 18.897C24.1318 18.7983 24.3115 18.7332 24.4883 18.6497L24.4583 18.6033ZM10.059 16.8403C9.86912 16.3937 9.75473 15.9188 9.7205 15.4347C9.6885 14.9785 9.74275 14.524 9.7895 14.0697C9.835 13.6298 9.87275 13.1878 9.886 12.7458C9.908 12.0193 9.859 11.2937 9.82425 10.5677C9.80325 10.1355 9.8535 9.698 9.892 9.26475C9.92675 8.8745 9.97 8.48325 10.0437 8.09875C10.1675 7.4535 10.3318 6.8175 10.5653 6.201C10.787 5.6165 11.0417 5.04725 11.4015 4.53475C11.648 4.18325 11.9277 3.85475 12.1965 3.51125L12.1167 3.483C11.2422 3.20525 10.3535 2.98825 9.4395 2.8935C9.00725 2.84875 8.5735 2.8225 8.14 2.79675C8.007 2.78875 7.872 2.80675 7.7385 2.8195C7.408 2.851 7.0735 2.8635 6.74825 2.9255C6.19475 3.03075 5.66375 3.20775 5.172 3.496C4.7305 3.75475 4.35975 4.08925 4.04925 4.4905C3.70625 4.9335 3.4755 5.4345 3.30975 5.96875C3.114 6.599 3.02075 7.2475 2.9955 7.902C2.9735 8.47575 2.9625 9.05275 3.0615 9.62425C3.13525 10.0498 3.1845 10.4797 3.26575 10.9035C3.3765 11.4812 3.49525 12.0578 3.6325 12.6295C3.82875 13.448 4.02475 14.2677 4.25725 15.0763C4.47975 15.851 4.73075 16.6188 5.00275 17.3773C5.22525 17.9963 5.4825 18.6038 5.7535 19.2033C5.93 19.5938 6.14375 19.9695 6.36775 20.3353C6.606 20.7235 6.877 21.092 7.24475 21.3738C7.70875 21.7295 8.068 21.7847 8.5395 21.3945C8.7415 21.2273 8.91225 21.0208 9.088 20.824C9.36725 20.5115 9.63675 20.1905 9.91475 19.877C10.2688 19.4775 10.6272 19.0822 10.983 18.6847C11.0582 18.6007 11.1305 18.5142 11.2037 18.4293L11.0828 18.323C10.6434 17.9042 10.2949 17.3995 10.059 16.8403ZM23.481 4.948C23.7719 5.28617 24.0479 5.63683 24.3083 5.999C24.8083 6.70125 25.2078 7.4595 25.502 8.27075C25.6323 8.62825 25.7362 8.98925 25.6898 9.3805C25.6575 9.6545 25.6602 9.9325 25.636 10.208C25.6157 10.4373 25.5795 10.6652 25.5497 10.8938C25.5052 11.2382 25.4408 11.5817 25.4215 11.9277C25.4032 12.257 25.4223 12.5898 25.443 12.9198C25.464 13.255 25.5093 13.5887 25.54 13.9235C25.5748 14.303 25.6215 14.6825 25.6322 15.0627C25.641 15.375 25.6133 15.6892 25.586 16.001C25.5535 16.3765 25.4583 16.74 25.3162 17.0888C25.2165 17.3343 25.0972 17.5723 24.9845 17.818L25.0298 17.866L25.0985 17.9193L25.1677 17.7952C25.7525 16.8749 26.2723 15.9148 26.7232 14.922C27.0118 14.2811 27.2858 13.6338 27.545 12.9805C27.951 11.9645 28.2722 10.92 28.5208 9.85475C28.6322 9.3765 28.7175 8.891 28.7932 8.4055C28.8522 8.026 28.9015 7.642 28.9125 7.259C28.9242 6.85275 28.9018 6.44325 28.8643 6.038C28.8363 5.732 28.7607 5.424 28.569 5.17525C28.2607 4.77475 27.928 4.39175 27.5187 4.08875C27.1742 3.8335 26.831 3.57175 26.4613 3.357C25.875 3.017 25.2405 2.7905 24.5775 2.63625C23.9305 2.4855 23.275 2.4205 22.6152 2.40675C22.2262 2.3985 21.8355 2.44025 21.4473 2.47675C21.0955 2.50975 20.746 2.566 20.3918 2.6125C20.7717 2.82625 21.1465 3.01625 21.5 3.24025C22.2432 3.711 22.9093 4.2775 23.481 4.948ZM13.8247 18.1285C14.065 17.3603 14.3923 16.6267 14.7093 15.8888C14.9663 15.2902 15.1067 14.6597 15.1535 14.0122C15.1767 13.693 15.1702 13.3698 15.1545 13.0495C15.1389 12.6932 15.1062 12.3379 15.0565 11.9847C14.99 11.5345 14.9142 11.084 14.8077 10.642C14.6922 10.1638 14.401 9.83075 13.902 9.708C13.598 9.63325 13.296 9.63625 12.9888 9.68475C12.2383 9.803 11.5513 10.0795 10.9113 10.4845C10.7825 10.566 10.7118 10.6318 10.734 10.8165C10.781 11.2077 10.7913 11.6052 10.7895 12.0002C10.787 12.5592 10.7632 13.1182 10.742 13.677C10.735 13.859 10.7087 14.04 10.6892 14.2212C10.6593 14.4987 10.6015 14.776 10.6032 15.053C10.605 15.3385 10.6342 15.6308 10.7035 15.9073C10.9235 16.784 11.3895 17.5015 12.1532 18.0077C12.623 18.319 13.1427 18.476 13.7133 18.5058C13.752 18.3748 13.7865 18.251 13.8247 18.1285ZM12.9283 10.6067C12.8278 10.3957 12.8853 10.221 13.1182 10.14C13.175 10.12 13.2335 10.0988 13.2925 10.093C13.3735 10.085 13.456 10.091 13.538 10.091C13.8335 10.0925 14.1177 10.1337 14.3617 10.3217C14.5182 10.4422 14.5602 10.6023 14.459 10.7665C14.3152 10.9995 14.096 11.1165 13.8267 11.139C13.4025 11.1742 13.1048 10.9765 12.9283 10.6067ZM24.6882 10.5297C24.7222 10.2487 24.7495 9.967 24.7843 9.686C24.7983 9.573 24.7387 9.5425 24.644 9.53975C24.346 9.5315 24.048 9.521 23.75 9.5155C23.414 9.5095 23.087 9.5635 22.776 9.69125C22.431 9.83325 22.1683 10.0608 22.061 10.4362C21.9825 10.7132 21.9577 11.0025 21.9877 11.2887C22.0295 11.7314 22.1298 12.1665 22.286 12.5828C22.4945 13.138 22.7127 13.693 22.9735 14.225C23.3267 14.9453 23.7265 15.6425 24.1017 16.3517C24.202 16.541 24.2863 16.7385 24.3908 16.9595C24.6014 16.5201 24.7166 16.0411 24.7285 15.554C24.7388 15.1515 24.7065 14.7472 24.683 14.3445C24.6683 14.098 24.6335 13.853 24.6095 13.607C24.576 13.2643 24.5252 12.9218 24.5175 12.5782C24.5098 12.229 24.5345 11.8778 24.5645 11.529C24.5928 11.1945 24.648 10.8628 24.6882 10.5297ZM24.016 10.2592C23.9053 10.565 23.6685 10.7375 23.3615 10.7882C23.0753 10.8352 22.8245 10.7295 22.638 10.5013C22.5053 10.3387 22.556 10.1462 22.755 10.0365C22.9835 9.91 23.2348 9.878 23.531 9.85875C23.6115 9.8735 23.7327 9.88575 23.848 9.91875C24.0152 9.966 24.077 10.0918 24.016 10.2592ZM15.1605 19.6742C14.9967 19.5405 14.7803 19.5328 14.6245 19.6795C14.4313 19.862 14.2613 20.0708 14.0913 20.2765C13.895 20.5142 13.711 20.7615 13.4578 20.9457C13.0893 21.2135 12.6597 21.3245 12.228 21.4295C11.8847 21.513 11.54 21.5905 11.1958 21.6707L11.1915 21.7153C11.2937 21.7625 11.3928 21.8215 11.4993 21.8552C12.0243 22.0215 12.5582 22.1042 13.113 22.0572C13.5135 22.0232 13.895 21.936 14.2565 21.7645C14.754 21.5287 15.1367 21.1553 15.4622 20.7208C15.5167 20.6483 15.5415 20.541 15.548 20.4475C15.5703 20.1173 15.4025 19.8717 15.1605 19.6742ZM28.0982 19.8057C27.6757 19.851 27.2528 19.899 26.829 19.9233C26.6245 19.935 26.417 19.896 26.2105 19.8792C25.8643 19.8512 25.5262 19.7743 25.2335 19.5893C25.064 19.4825 24.9233 19.4705 24.7432 19.531C24.4862 19.6175 24.2765 19.749 24.2145 20.0275C24.1723 20.2157 24.157 20.4107 24.14 20.6035C24.1367 20.6375 24.1793 20.7 24.2118 20.7085C24.41 20.7607 24.6093 20.8225 24.812 20.8407C25.061 20.8632 25.3145 20.856 25.5653 20.8435C25.836 20.83 26.1085 20.8125 26.3752 20.7675C27.004 20.662 27.6122 20.49 28.1525 20.1335C28.3472 20.0047 28.5402 19.8733 28.7337 19.743L28.7178 19.7155C28.5113 19.7463 28.3057 19.7838 28.0982 19.8057Z" fill="#FFF4DA"/>
</svg>
