<svg width="32" height="32" viewBox="0 0 32 32" fill="none" xmlns="http://www.w3.org/2000/svg">
<path d="M15.9999 18.8504C17.5739 18.8504 18.8499 17.5744 18.8499 16.0004C18.8499 14.4264 17.5739 13.1504 15.9999 13.1504C14.4259 13.1504 13.1499 14.4264 13.1499 16.0004C13.1499 17.5744 14.4259 18.8504 15.9999 18.8504Z" fill="#FFF4DA"/>
<path d="M26.8251 11.3004C26.2751 11.1004 25.7001 10.9004 25.1001 10.7254C25.2501 10.1254 25.3751 9.52539 25.4751 8.95039C26.0001 5.65039 25.4251 3.32539 23.8251 2.42539C23.3501 2.15039 22.8251 2.02539 22.2251 2.02539C20.4751 2.02539 18.2501 3.32539 16.0001 5.50039C13.7501 3.32539 11.5251 2.02539 9.7751 2.02539C9.1751 2.02539 8.6501 2.15039 8.1751 2.42539C6.5751 3.35039 6.0001 5.67539 6.5251 8.95039C6.6251 9.52539 6.7501 10.1254 6.9001 10.7254C6.3001 10.9004 5.7251 11.0754 5.1751 11.3004C2.0501 12.5004 0.350098 14.1504 0.350098 16.0004C0.350098 17.8504 2.0751 19.5004 5.1751 20.7004C5.7251 20.9004 6.3001 21.1004 6.9001 21.2754C6.7501 21.8754 6.6251 22.4754 6.5251 23.0504C6.0001 26.3504 6.5751 28.6754 8.1751 29.5754C8.6501 29.8504 9.1751 29.9754 9.7751 29.9754C11.5501 29.9754 13.7751 28.6754 16.0001 26.5004C18.2501 28.6754 20.4751 29.9754 22.2251 29.9754C22.8251 29.9754 23.3501 29.8504 23.8251 29.5754C25.4251 28.6504 26.0001 26.3254 25.4751 23.0504C25.3751 22.4754 25.2501 21.8754 25.1001 21.2754C25.7001 21.1004 26.2751 20.9254 26.8251 20.7004C29.9501 19.5004 31.6501 17.8504 31.6501 16.0004C31.6501 14.1504 29.9501 12.5004 26.8251 11.3004ZM23.1251 3.67539C24.1501 4.27539 24.5001 6.12539 24.0751 8.75039C24.0001 9.27539 23.8751 9.82539 23.7251 10.4004C22.4251 10.1004 21.0501 9.90039 19.6001 9.77539C18.7501 8.57539 17.8751 7.50039 17.0001 6.52539C18.8501 4.70039 20.7251 3.45039 22.2501 3.45039C22.5751 3.45039 22.8751 3.52539 23.1251 3.67539ZM20.3251 18.5004C19.8751 19.3004 19.3501 20.1004 18.8001 20.9004C17.8751 20.9754 16.9501 21.0004 16.0001 21.0004C15.0251 21.0004 14.1001 20.9754 13.2001 20.9004C12.6501 20.1004 12.1501 19.3004 11.7001 18.5004C11.2251 17.6754 10.7751 16.8254 10.3751 16.0004C10.7751 15.1754 11.2251 14.3254 11.7001 13.5004C12.1501 12.7004 12.6751 11.9004 13.2251 11.1004C14.1501 11.0254 15.0751 11.0004 16.0251 11.0004C17.0001 11.0004 17.9251 11.0254 18.8251 11.1004C19.3751 11.9004 19.8751 12.7004 20.3251 13.5004C20.8001 14.3254 21.2501 15.1754 21.6501 16.0004C21.2251 16.8254 20.8001 17.6504 20.3251 18.5004ZM22.4001 17.6754C22.7751 18.5504 23.0751 19.4004 23.3501 20.2504C22.5001 20.4504 21.6001 20.6004 20.6501 20.7254C20.9501 20.2504 21.2751 19.7504 21.5501 19.2254C21.8501 18.7004 22.1251 18.1754 22.4001 17.6754ZM16.0001 24.4504C15.4001 23.8004 14.8251 23.1004 14.2751 22.3754C14.8501 22.4004 15.4251 22.4254 16.0001 22.4254C16.5751 22.4254 17.1501 22.4004 17.7251 22.3754C17.1751 23.1004 16.6001 23.8004 16.0001 24.4504ZM11.3501 20.7004C10.4001 20.5754 9.5001 20.4254 8.6501 20.2254C8.9251 19.4004 9.2251 18.5254 9.6001 17.6504C9.8751 18.1504 10.1501 18.6754 10.4501 19.1754C10.7501 19.7254 11.0501 20.2004 11.3501 20.7004ZM9.6001 14.3254C9.2251 13.4504 8.9251 12.6004 8.6501 11.7504C9.5001 11.5504 10.4001 11.4004 11.3501 11.2754C11.0501 11.7504 10.7251 12.2504 10.4501 12.7754C10.1501 13.3004 9.8751 13.8254 9.6001 14.3254ZM16.0001 7.55039C16.6001 8.20039 17.1751 8.90039 17.7251 9.62539C17.1501 9.60039 16.5751 9.57539 16.0001 9.57539C15.4251 9.57539 14.8501 9.60039 14.2751 9.62539C14.8251 8.90039 15.4001 8.20039 16.0001 7.55039ZM21.5501 12.8004L20.6501 11.3004C21.6001 11.4254 22.5001 11.5754 23.3501 11.7754C23.0751 12.6004 22.7751 13.4754 22.4001 14.3504C22.1251 13.8254 21.8501 13.3004 21.5501 12.8004ZM7.9251 8.75039C7.5001 6.12539 7.8501 4.27539 8.8751 3.67539C9.1251 3.52539 9.4251 3.45039 9.7501 3.45039C11.2501 3.45039 13.1251 4.67539 15.0001 6.52539C14.1251 7.47539 13.2501 8.57539 12.4001 9.77539C10.9501 9.90039 9.5751 10.1254 8.2751 10.4004C8.1251 9.82539 8.0251 9.27539 7.9251 8.75039ZM1.7501 16.0004C1.7501 14.8254 3.1751 13.5754 5.6751 12.6504C6.1751 12.4504 6.7251 12.2754 7.2751 12.1254C7.6751 13.3754 8.1751 14.7004 8.7751 16.0254C8.1751 17.3504 7.6501 18.6504 7.2751 19.9004C3.8251 18.9004 1.7501 17.4004 1.7501 16.0004ZM8.8751 28.3254C7.8501 27.7254 7.5001 25.8754 7.9251 23.2504C8.0001 22.7254 8.1251 22.1754 8.2751 21.6004C9.5751 21.9004 10.9501 22.1004 12.4001 22.2254C13.2501 23.4254 14.1251 24.5004 15.0001 25.4754C13.1501 27.3004 11.2751 28.5504 9.7501 28.5504C9.4251 28.5504 9.1251 28.4754 8.8751 28.3254ZM24.0751 23.2504C24.5001 25.8754 24.1501 27.7254 23.1251 28.3254C22.8751 28.4754 22.5751 28.5504 22.2501 28.5504C20.7501 28.5504 18.8751 27.3254 17.0001 25.4754C17.8751 24.5254 18.7501 23.4254 19.6001 22.2254C21.0501 22.1004 22.4251 21.8754 23.7251 21.6004C23.8751 22.1754 23.9751 22.7254 24.0751 23.2504ZM26.3251 19.3504C25.8251 19.5504 25.2751 19.7254 24.7251 19.8754C24.3251 18.6254 23.8251 17.3004 23.2251 15.9754C23.8251 14.6504 24.3501 13.3504 24.7251 12.1004C28.1751 13.1004 30.2501 14.6004 30.2501 16.0004C30.2501 17.1754 28.8001 18.4254 26.3251 19.3504Z" fill="#FFF4DA"/>
</svg>
