<svg width="87" height="16" viewBox="0 0 87 16" fill="none" xmlns="http://www.w3.org/2000/svg">
<path d="M8.32815 6.62811L6.1844 6.86273C6.12377 6.64549 6.01767 6.44128 5.86609 6.2501C5.71884 6.05893 5.51962 5.90468 5.26844 5.78737C5.01725 5.67006 4.70976 5.6114 4.34597 5.6114C3.85659 5.6114 3.44516 5.71785 3.11169 5.93075C2.78255 6.14365 2.62014 6.41955 2.62447 6.75845C2.62014 7.04956 2.72625 7.28635 2.94279 7.46884C3.16366 7.65132 3.52745 7.80122 4.03415 7.91853L5.73616 8.2835C6.68028 8.48771 7.38187 8.81141 7.84094 9.25458C8.30434 9.69776 8.5382 10.2778 8.54253 10.9947C8.5382 11.6247 8.35414 12.1809 7.99035 12.6631C7.63089 13.1411 7.13068 13.5147 6.48972 13.7841C5.84876 14.0535 5.11253 14.1882 4.28101 14.1882C3.05972 14.1882 2.07663 13.9318 1.33173 13.4191C0.586825 12.9021 0.142917 12.183 0 11.2619L2.29317 11.0403C2.39711 11.4922 2.61798 11.8333 2.95578 12.0635C3.29358 12.2938 3.73316 12.409 4.27451 12.409C4.83319 12.409 5.28143 12.2938 5.61923 12.0635C5.96136 11.8333 6.13243 11.5487 6.13243 11.2098C6.13243 10.923 6.022 10.6862 5.80113 10.4994C5.58458 10.3126 5.24678 10.1692 4.78771 10.0692L3.0857 9.71079C2.1286 9.51093 1.42051 9.1742 0.961441 8.70061C0.502374 8.22267 0.275007 7.61874 0.279337 6.8888C0.275007 6.27183 0.441743 5.73741 0.779546 5.28554C1.12168 4.82933 1.5959 4.47739 2.20222 4.22974C2.81286 3.97773 3.51662 3.85173 4.31349 3.85173C5.48281 3.85173 6.40311 4.10156 7.07438 4.60122C7.74999 5.10088 8.16791 5.77651 8.32815 6.62811Z" fill="#FFF4DA"/>
<path d="M12.8333 8.12709V13.9927H10.4817V0.645214H12.7813V5.6831H12.8982C13.1321 5.11826 13.4937 4.67291 13.9831 4.34705C14.4768 4.01684 15.1048 3.85173 15.867 3.85173C16.5599 3.85173 17.1641 3.99728 17.6795 4.28839C18.1948 4.5795 18.5933 5.0053 18.8748 5.56578C19.1606 6.12627 19.3035 6.81059 19.3035 7.61874V13.9927H16.9519V7.98371C16.9519 7.31025 16.7787 6.78669 16.4322 6.41303C16.0901 6.03503 15.6093 5.84603 14.99 5.84603C14.5743 5.84603 14.2018 5.93727 13.8727 6.11976C13.5479 6.2979 13.2923 6.55642 13.1061 6.89532C12.9242 7.23422 12.8333 7.64481 12.8333 8.12709Z" fill="#FFF4DA"/>
<path d="M24.572 14.1947C23.9397 14.1947 23.3702 14.0817 22.8634 13.8558C22.3611 13.6255 21.9626 13.2866 21.6681 12.8391C21.378 12.3916 21.2329 11.8398 21.2329 11.1837C21.2329 10.6189 21.3368 10.1518 21.5447 9.78249C21.7526 9.41317 22.0363 9.11772 22.3957 8.89613C22.7552 8.67454 23.1601 8.50726 23.6105 8.3943C24.0652 8.27699 24.5351 8.19226 25.0202 8.14012C25.6049 8.07929 26.0791 8.02498 26.4429 7.97719C26.8067 7.92505 27.0708 7.84684 27.2354 7.74257C27.4043 7.63394 27.4888 7.46667 27.4888 7.24073V7.20163C27.4888 6.71066 27.3437 6.33048 27.0535 6.0611C26.7633 5.79172 26.3454 5.65703 25.7997 5.65703C25.2237 5.65703 24.7668 5.78303 24.429 6.03503C24.0956 6.28703 23.8704 6.58466 23.7534 6.9279L21.5577 6.61507C21.7309 6.00679 22.0168 5.49844 22.4152 5.09002C22.8136 4.67726 23.3009 4.36877 23.8769 4.16456C24.4529 3.95601 25.0895 3.85173 25.7867 3.85173C26.2675 3.85173 26.746 3.90821 27.2224 4.02118C27.6988 4.13415 28.134 4.32098 28.5282 4.58167C28.9223 4.83802 29.2384 5.18778 29.4766 5.63096C29.7191 6.07413 29.8404 6.62811 29.8404 7.29287V13.9927H27.5797V12.6175H27.5017C27.3588 12.8956 27.1574 13.1563 26.8976 13.3996C26.6421 13.6386 26.3194 13.8319 25.9297 13.9796C25.5442 14.123 25.0917 14.1947 24.572 14.1947ZM25.1826 12.4611C25.6547 12.4611 26.0639 12.3677 26.4104 12.1809C26.7568 11.9897 27.0232 11.7377 27.2094 11.4248C27.4 11.112 27.4953 10.7709 27.4953 10.4016V9.222C27.4216 9.28282 27.296 9.33931 27.1185 9.39145C26.9452 9.44358 26.7504 9.48921 26.5338 9.52831C26.3173 9.56741 26.1029 9.60217 25.8907 9.63259C25.6785 9.663 25.4944 9.68907 25.3385 9.71079C24.9877 9.75859 24.6737 9.8368 24.3966 9.94542C24.1194 10.054 23.9007 10.2061 23.7404 10.4016C23.5802 10.5928 23.5001 10.8405 23.5001 11.1446C23.5001 11.5791 23.6582 11.9071 23.9743 12.1287C24.2905 12.3503 24.6932 12.4611 25.1826 12.4611Z" fill="#FFF4DA"/>
<path d="M35.9079 14.1686C35.124 14.1686 34.4224 13.9666 33.8031 13.5625C33.1838 13.1585 32.6944 12.5719 32.3349 11.8029C31.9755 11.0338 31.7957 10.0997 31.7957 9.00041C31.7957 7.88812 31.9776 6.94963 32.3414 6.18493C32.7096 5.41589 33.2054 4.83585 33.8291 4.44481C34.4527 4.04942 35.1478 3.85173 35.9144 3.85173C36.499 3.85173 36.9797 3.95166 37.3565 4.15153C37.7333 4.34705 38.0321 4.58384 38.253 4.86191C38.4739 5.13564 38.6449 5.39416 38.7662 5.63747H38.8636V0.645214H41.2218V13.9927H38.9091V12.4155H38.7662C38.6449 12.6588 38.4695 12.9173 38.24 13.191C38.0105 13.4604 37.7073 13.6907 37.3305 13.8819C36.9537 14.073 36.4795 14.1686 35.9079 14.1686ZM36.564 12.233C37.062 12.233 37.4864 12.0983 37.8372 11.8289C38.188 11.5552 38.4544 11.175 38.6363 10.6884C38.8182 10.2018 38.9091 9.63476 38.9091 8.98737C38.9091 8.33999 38.8182 7.77733 38.6363 7.29939C38.4587 6.82145 38.1945 6.44997 37.8437 6.18493C37.4973 5.91989 37.0707 5.78737 36.564 5.78737C36.0399 5.78737 35.6025 5.92424 35.2517 6.19796C34.9009 6.47169 34.6368 6.84969 34.4592 7.33198C34.2816 7.81426 34.1929 8.36606 34.1929 8.98737C34.1929 9.61303 34.2816 10.1714 34.4592 10.6623C34.6411 11.1489 34.9074 11.5335 35.2582 11.8159C35.6134 12.094 36.0486 12.233 36.564 12.233Z" fill="#FFF4DA"/>
<path d="M48.0802 14.1882C47.0841 14.1882 46.2287 13.9688 45.5141 13.5299C44.8039 13.0911 44.256 12.485 43.8706 11.7116C43.4895 10.9339 43.2989 10.0388 43.2989 9.02648C43.2989 8.00978 43.4938 7.11256 43.8836 6.33483C44.2734 5.55275 44.8234 4.94447 45.5336 4.50998C46.2482 4.07115 47.0927 3.85173 48.0672 3.85173C48.877 3.85173 49.5938 4.00163 50.2174 4.30143C50.8454 4.59688 51.3456 5.01616 51.718 5.55927C52.0905 6.09803 52.3027 6.72804 52.3547 7.44929H50.107C50.016 6.96701 49.7995 6.56511 49.4574 6.24358C49.1195 5.91772 48.667 5.75479 48.0996 5.75479C47.6189 5.75479 47.1967 5.88513 46.8329 6.14582C46.4691 6.40217 46.1854 6.77149 45.9819 7.25377C45.7827 7.73605 45.683 8.31392 45.683 8.98737C45.683 9.66952 45.7827 10.2561 45.9819 10.747C46.1811 11.2337 46.4604 11.6095 46.8199 11.8745C47.1837 12.1352 47.6103 12.2656 48.0996 12.2656C48.4461 12.2656 48.7558 12.2004 49.0286 12.0701C49.3058 11.9354 49.5375 11.742 49.7237 11.49C49.9099 11.238 50.0377 10.9317 50.107 10.5711H52.3547C52.2984 11.2793 52.0905 11.9071 51.731 12.4546C51.3716 12.9977 50.8822 13.4235 50.2629 13.732C49.6436 14.0361 48.916 14.1882 48.0802 14.1882Z" fill="#FFF4DA"/>
<path d="M56.6373 8.12709V13.9927H54.2857V3.98208H56.5334V5.6831H56.6503C56.8798 5.12261 57.2458 4.67726 57.7482 4.34705C58.2549 4.01684 58.8807 3.85173 59.6256 3.85173C60.3142 3.85173 60.914 3.99946 61.425 4.29491C61.9404 4.59036 62.3388 5.01833 62.6203 5.57882C62.9062 6.13931 63.0469 6.81928 63.0426 7.61874V13.9927H60.6909V7.98371C60.6909 7.3146 60.5177 6.79104 60.1712 6.41303C59.8291 6.03503 59.3549 5.84603 58.7486 5.84603C58.3371 5.84603 57.9712 5.93727 57.6507 6.11976C57.3346 6.2979 57.0855 6.55642 56.9036 6.89532C56.7261 7.23422 56.6373 7.64481 56.6373 8.12709Z" fill="#FFF4DA"/>
<path d="M70.864 0.0195514L66.5765 16H64.5172L68.8047 0.0195514H70.864Z" fill="#FFF4DA"/>
<path d="M78.7244 9.78249V3.98208H81.0761V13.9927H78.7959V12.2134H78.692C78.4668 12.7739 78.0965 13.2323 77.5811 13.5886C77.0701 13.9449 76.4399 14.123 75.6907 14.123C75.0368 14.123 74.4586 13.9775 73.9562 13.6864C73.4582 13.3909 73.0684 12.9629 72.7869 12.4024C72.5054 11.8376 72.3646 11.1555 72.3646 10.356V3.98208H74.7163V9.99104C74.7163 10.6254 74.8895 11.1294 75.236 11.5031C75.5824 11.8767 76.0372 12.0635 76.6002 12.0635C76.9466 12.0635 77.2823 11.9788 77.6071 11.8094C77.9319 11.6399 78.1983 11.3879 78.4061 11.0534C78.6183 10.7145 78.7244 10.2908 78.7244 9.78249Z" fill="#FFF4DA"/>
<path d="M83.4943 13.9927V3.98208H85.8459V13.9927H83.4943ZM84.6766 2.5613C84.3042 2.5613 83.9837 2.43747 83.7152 2.18982C83.4467 1.93781 83.3124 1.63584 83.3124 1.28391C83.3124 0.927631 83.4467 0.625662 83.7152 0.378004C83.9837 0.126001 84.3042 0 84.6766 0C85.0534 0 85.3739 0.126001 85.6381 0.378004C85.9066 0.625662 86.0408 0.927631 86.0408 1.28391C86.0408 1.63584 85.9066 1.93781 85.6381 2.18982C85.3739 2.43747 85.0534 2.5613 84.6766 2.5613Z" fill="#FFF4DA"/>
</svg>
