<svg width="96" height="27" viewBox="0 0 96 27" fill="none" xmlns="http://www.w3.org/2000/svg">
<path fill-rule="evenodd" clip-rule="evenodd" d="M87.003 13.3841H86.2101L86.2008 20.4631H82.7801V0.390625H86.2101V10.3501C88.6903 10.3501 91.1889 9.17629 91.1889 6.07015H94.6005C94.6005 8.9325 92.8118 11.5962 90.147 12.6165L95.6423 20.4631H91.779L87.003 13.3841ZM26.7758 17.9165C24.1296 17.9165 22.3778 15.912 21.8891 15.1355C22.5161 10.2234 24.3509 8.67037 26.7758 8.67037C29.1731 8.67037 31.0356 10.5485 31.0356 13.2934C31.0356 16.0384 29.1731 17.9165 26.7758 17.9165ZM26.7758 5.65453C22.4608 5.65453 20.0451 8.40852 19.3536 11.2438C18.5698 9.79905 17.989 7.86676 17.5372 6.06989H11.5717V13.3386C11.5717 15.9752 10.3454 17.9256 7.94816 17.9256C5.5509 17.9256 4.1771 15.9752 4.1771 13.3386L4.20476 6.06989H0.765625V13.3386C0.765625 15.4606 1.46636 17.3838 2.74797 18.7563C4.06646 20.1739 5.86439 20.9143 7.94816 20.9143C12.0972 20.9143 14.9924 17.7992 14.9924 13.3386V8.45366C15.4257 10.0609 16.4584 13.149 18.4315 15.8579L16.5875 26.1424H20.082L21.299 18.8556C21.6955 19.1806 22.1196 19.4696 22.5714 19.7315C23.7423 20.4538 25.0793 20.8602 26.4623 20.9053C26.4623 20.9053 26.6743 20.9143 26.785 20.9143C31.0632 20.9143 34.4654 17.6728 34.4654 13.2934C34.4654 8.91416 31.054 5.65453 26.7758 5.65453ZM76.187 7.6237V6.07064H72.8124V20.4545H76.2331V14.8202C76.2331 11.3529 76.5558 8.86074 81.3042 9.1858V5.89908C79.0913 5.73655 77.3672 6.18802 76.187 7.6237ZM49.9565 16.1298L52.4367 6.07097H56.0972L52.0771 20.464H47.9649L45.1343 10.2426L42.2761 20.464H38.1639L34.3651 6.07097H37.8319L40.3029 16.1298L42.9584 6.07097H47.3103L49.9565 16.1298ZM63.63 17.9256C61.1959 17.9256 59.3703 16.0475 59.3703 13.2934C59.3703 10.5395 61.2051 8.67037 63.63 8.67037C66.0273 8.67037 67.8898 10.5485 67.8898 13.2934C67.8898 16.0384 66.0273 17.9256 63.63 17.9256ZM63.63 5.65453C59.3241 5.65453 55.9496 8.92319 55.9496 13.2934C55.9496 17.6637 59.3241 20.9053 63.63 20.9053C67.9082 20.9053 71.3105 17.6637 71.3105 13.2934C71.3105 8.92319 67.9174 5.65453 63.63 5.65453Z" fill="#FFF4DA"/>
</svg>
