<svg width="108" height="34" viewBox="0 0 108 34" fill="none" xmlns="http://www.w3.org/2000/svg">
<path d="M57.0947 8.75901C57.0947 9.95721 56.1294 10.9224 54.9312 10.9224C53.733 10.9224 52.7678 9.95721 52.7678 8.75901C52.7678 7.56081 53.6998 6.5956 54.9312 6.5956C56.1627 6.62888 57.0947 7.5941 57.0947 8.75901ZM48.1747 13.1191C48.1747 13.3188 48.1747 13.6517 48.1747 13.6517C48.1747 13.6517 47.143 12.3203 44.9463 12.3203C41.3184 12.3203 38.4893 15.0828 38.4893 18.9104C38.4893 22.7047 41.2851 25.5005 44.9463 25.5005C47.1762 25.5005 48.1747 24.1359 48.1747 24.1359V24.7017C48.1747 24.968 48.3744 25.1677 48.6407 25.1677H51.3366V12.6532C51.3366 12.6532 48.8737 12.6532 48.6407 12.6532C48.3744 12.6532 48.1747 12.8861 48.1747 13.1191ZM48.1747 21.1404C47.6755 21.8726 46.677 22.505 45.4788 22.505C43.3487 22.505 41.7178 21.1737 41.7178 18.9104C41.7178 16.6471 43.3487 15.3158 45.4788 15.3158C46.6437 15.3158 47.7088 15.9815 48.1747 16.6804V21.1404ZM53.3336 12.6532H56.5288V25.1677H53.3336V12.6532ZM101.062 12.3203C98.8652 12.3203 97.8334 13.6517 97.8334 13.6517V6.62888H94.6382V25.1677C94.6382 25.1677 97.1012 25.1677 97.3341 25.1677C97.6004 25.1677 97.8001 24.9347 97.8001 24.7017V24.1359C97.8001 24.1359 98.8319 25.5005 101.029 25.5005C104.656 25.5005 107.486 22.7047 107.486 18.9104C107.486 15.1161 104.656 12.3203 101.062 12.3203ZM100.529 22.4717C99.2979 22.4717 98.3326 21.8393 97.8334 21.1071V16.6471C98.3326 15.9815 99.3977 15.2825 100.529 15.2825C102.659 15.2825 104.29 16.6139 104.29 18.8771C104.29 21.1404 102.659 22.4717 100.529 22.4717ZM92.974 17.7455V25.201H89.7788V18.1116C89.7788 16.048 89.1132 15.216 87.3159 15.216C86.3506 15.216 85.3521 15.7152 84.7198 16.4474V25.1677H81.5246V12.6532H84.0541C84.3204 12.6532 84.5201 12.8861 84.5201 13.1191V13.6517C85.452 12.6864 86.6835 12.3203 87.915 12.3203C89.3129 12.3203 90.4778 12.7197 91.4097 13.5185C92.5413 14.4505 92.974 15.6486 92.974 17.7455ZM73.7696 12.3203C71.5729 12.3203 70.5411 13.6517 70.5411 13.6517V6.62888H67.3459V25.1677C67.3459 25.1677 69.8089 25.1677 70.0418 25.1677C70.3081 25.1677 70.5078 24.9347 70.5078 24.7017V24.1359C70.5078 24.1359 71.5396 25.5005 73.7363 25.5005C77.3642 25.5005 80.1932 22.7047 80.1932 18.9104C80.2265 15.1161 77.3975 12.3203 73.7696 12.3203ZM73.237 22.4717C72.0056 22.4717 71.0403 21.8393 70.5411 21.1071V16.6471C71.0403 15.9815 72.1054 15.2825 73.237 15.2825C75.3672 15.2825 76.998 16.6139 76.998 18.8771C76.998 21.1404 75.3672 22.4717 73.237 22.4717ZM64.5834 12.3203C65.5486 12.3203 66.0479 12.4867 66.0479 12.4867V15.449C66.0479 15.449 63.3852 14.5503 61.721 16.4474V25.201H58.5258V12.6532C58.5258 12.6532 60.9888 12.6532 61.2218 12.6532C61.488 12.6532 61.6877 12.8861 61.6877 13.1191V13.6517C62.2868 12.9527 63.5849 12.3203 64.5834 12.3203ZM31.4 24.036C31.2335 23.6366 31.0671 23.204 30.9007 22.8378C30.6344 22.2387 30.3682 21.6729 30.1352 21.1404L30.1019 21.1071C27.8054 16.1146 25.3424 11.0556 22.7463 6.06307L22.6465 5.86337C22.3802 5.36412 22.1139 4.83158 21.8477 4.29905C21.5148 3.69995 21.182 3.06757 20.6495 2.46847C19.5844 1.13714 18.0534 0.404907 16.4225 0.404907C14.7583 0.404907 13.2606 1.13714 12.1622 2.4019C11.663 3.001 11.2969 3.63339 10.964 4.23248C10.6978 4.76502 10.4315 5.29755 10.1652 5.7968L10.0654 5.9965C7.50257 10.989 5.00633 16.048 2.70978 21.0405L2.6765 21.1071C2.44351 21.6396 2.17725 22.2055 1.91098 22.8046C1.74457 23.1707 1.57815 23.5701 1.41173 24.0028C0.97905 25.2342 0.845917 26.3991 1.01233 27.5973C1.37845 30.0936 3.04261 32.1904 5.33916 33.1224C6.20452 33.4885 7.10317 33.6549 8.0351 33.6549C8.30137 33.6549 8.6342 33.6216 8.90047 33.5883C9.99882 33.4552 11.1305 33.0891 12.2288 32.4567C13.5934 31.6912 14.8915 30.5928 16.3559 28.9952C17.8204 30.5928 19.1517 31.6912 20.483 32.4567C21.5814 33.0891 22.713 33.4552 23.8114 33.5883C24.0776 33.6216 24.4105 33.6549 24.6767 33.6549C25.6087 33.6549 26.5406 33.4885 27.3727 33.1224C29.7025 32.1904 31.3334 30.0603 31.6995 27.5973C31.9658 26.4324 31.8326 25.2675 31.4 24.036ZM16.3892 25.7668C14.5919 23.5035 13.427 21.3734 13.0276 19.5761C12.8612 18.8106 12.8279 18.1449 12.9277 17.5458C12.9943 17.0133 13.194 16.5473 13.4603 16.1479C14.0927 15.2493 15.1577 14.6834 16.3892 14.6834C17.6207 14.6834 18.719 15.216 19.3181 16.1479C19.5844 16.5473 19.7841 17.0133 19.8507 17.5458C19.9505 18.1449 19.9172 18.8438 19.7508 19.5761C19.3514 21.3401 18.1865 23.4702 16.3892 25.7668ZM29.6692 27.3311C29.4363 29.0618 28.2713 30.5596 26.6405 31.2252C25.8417 31.5581 24.9763 31.6579 24.1109 31.5581C23.2788 31.4582 22.4468 31.1919 21.5814 30.6927C20.3832 30.027 19.185 28.9952 17.7871 27.4642C19.9838 24.7683 21.3151 22.3053 21.8144 20.1086C22.0474 19.0768 22.0806 18.1449 21.9808 17.2795C21.8477 16.4474 21.5481 15.6819 21.0821 15.0163C20.0504 13.5185 18.3196 12.6532 16.3892 12.6532C14.4588 12.6532 12.728 13.5518 11.6963 15.0163C11.2303 15.6819 10.9307 16.4474 10.7976 17.2795C10.6645 18.1449 10.6978 19.1101 10.964 20.1086C11.4633 22.3053 12.8279 24.8016 14.9913 27.4975C13.6267 29.0285 12.3952 30.0603 11.197 30.726C10.3316 31.2252 9.49957 31.4915 8.66749 31.5913C7.76884 31.6912 6.90347 31.5581 6.13796 31.2585C4.50708 30.5928 3.34216 29.0951 3.10918 27.3644C3.00933 26.5323 3.0759 25.7002 3.40873 24.7683C3.50858 24.4354 3.675 24.1026 3.84141 23.7032C4.07439 23.1707 4.34066 22.6049 4.60693 22.039L4.64021 21.9725C6.93676 17.0133 9.39972 11.9542 11.9625 7.02828L12.0624 6.82858C12.3286 6.32933 12.5949 5.7968 12.8612 5.29755C13.1274 4.76502 13.427 4.26577 13.7931 3.83309C14.4921 3.03429 15.424 2.6016 16.4558 2.6016C17.4876 2.6016 18.4195 3.03429 19.1184 3.83309C19.4846 4.26577 19.7841 4.76502 20.0504 5.29755C20.3166 5.7968 20.5829 6.32933 20.8492 6.82858L20.949 7.02828C23.4785 11.9875 25.9415 17.0465 28.2381 22.0058V22.039C28.5043 22.5716 28.7373 23.1707 29.0036 23.7032C29.17 24.1026 29.3364 24.4354 29.4362 24.7683C29.7025 25.6336 29.8024 26.4657 29.6692 27.3311Z" fill="#2C2C2C"/>
</svg>
