<svg width="33" height="32" viewBox="0 0 33 32" fill="none" xmlns="http://www.w3.org/2000/svg">
<rect x="0.666626" width="32" height="32" rx="8" fill="url(#paint0_linear_154_23046)"/>
<path d="M16.6666 23.45C17.9166 23.45 18.9583 24.3333 19.9999 24.3333C22.4999 24.3333 24.9999 17.6666 24.9999 14.15C24.9715 13.0706 24.5176 12.0462 23.7371 11.3C22.9566 10.5539 21.9128 10.1465 20.8333 10.1666C18.9833 10.1666 17.4999 11.3666 16.6666 11.8333C15.8333 11.3666 14.3499 10.1666 12.4999 10.1666C11.4197 10.1443 10.3747 10.5509 9.59369 11.2975C8.81272 12.0442 8.35948 13.0699 8.33325 14.15C8.33325 17.6666 10.8333 24.3333 13.3333 24.3333C14.3749 24.3333 15.4166 23.45 16.6666 23.45Z" stroke="#FCECE8" stroke-width="1.75" stroke-linecap="round" stroke-linejoin="round"/>
<path d="M15 7.66663C15.8333 8.08329 16.6667 9.33329 16.6667 11.8333" stroke="#FCECE8" stroke-width="1.75" stroke-linecap="round" stroke-linejoin="round"/>
<defs>
<linearGradient id="paint0_linear_154_23046" x1="32.6666" y1="0" x2="0.666626" y2="32" gradientUnits="userSpaceOnUse">
<stop stop-color="#DF4418"/>
<stop offset="0.904463" stop-color="#F5C5B7"/>
</linearGradient>
</defs>
</svg>
