<svg width="92" height="28" viewBox="0 0 92 28" fill="none" xmlns="http://www.w3.org/2000/svg">
<path fill-rule="evenodd" clip-rule="evenodd" d="M8.72869 9.19903L8.72857 9.04942V8.43923C6.69193 8.43923 4.54039 8.87508 4.54039 11.2763C4.54039 12.4927 5.1704 13.3169 6.25212 13.3169C7.04458 13.3169 7.75384 12.8295 8.20158 12.037C8.73091 11.1069 8.72989 10.2309 8.72869 9.19903ZM10.9039 15.9835C11.1139 16.0944 11.3833 16.0826 11.5696 15.9161L11.5775 15.9241C12.1401 15.4248 13.1624 14.5333 13.737 14.0538C13.9668 13.8637 13.9272 13.5586 13.7449 13.305C13.6897 13.2285 13.6341 13.1536 13.5788 13.0792C13.1188 12.4592 12.683 11.8718 12.683 10.6938V6.30353C12.683 6.15355 12.6838 6.00456 12.6847 5.85669C12.6943 4.17234 12.7031 2.63414 11.4428 1.4576C10.3611 0.419467 8.57008 0.0549316 7.19911 0.0549316C4.52058 0.0549316 1.52902 1.05344 0.899007 4.36595C0.83561 4.71859 1.0892 4.90483 1.31901 4.95633L4.05302 5.24955C4.30661 5.23766 4.49284 4.98804 4.54039 4.73444C4.77417 3.59329 5.73305 3.04253 6.80684 3.04253C7.38534 3.04253 8.04309 3.25649 8.38781 3.77556C8.73983 4.2947 8.73447 4.98614 8.72967 5.60649C8.72912 5.67742 8.72857 5.74746 8.72857 5.81616V6.1807C8.46482 6.21079 8.18793 6.23912 7.90259 6.26831C6.42181 6.41982 4.71329 6.59462 3.43094 7.15939C1.6677 7.92016 0.42749 9.47736 0.42749 11.7636C0.42749 14.6918 2.27393 16.1539 4.64341 16.1539C6.64835 16.1539 7.74195 15.6824 9.28726 14.1054C9.36879 14.2226 9.44159 14.3304 9.51008 14.4318C9.87431 14.9709 10.1168 15.3298 10.9039 15.9835ZM45.6616 9.04943L45.6617 9.19905C45.6629 10.2309 45.6639 11.1069 45.1346 12.037C44.6868 12.8295 43.9736 13.3169 43.1851 13.3169C42.1034 13.3169 41.4694 12.4927 41.4694 11.2763C41.4694 8.87509 43.621 8.43923 45.6616 8.43923V9.04943ZM48.5026 15.9162C48.3163 16.0826 48.0469 16.0945 47.8369 15.9835C47.041 15.3226 46.7991 14.963 46.4296 14.4138C46.365 14.3176 46.2964 14.2157 46.2203 14.1054C44.6749 15.6824 43.5774 16.1539 41.5764 16.1539C39.203 16.1539 37.3605 14.6918 37.3605 11.7636C37.3605 9.47736 38.5967 7.92016 40.3639 7.1594C41.6463 6.59463 43.3548 6.41982 44.8356 6.26831C45.1209 6.23912 45.3978 6.21079 45.6616 6.1807V5.81617C45.6616 5.74799 45.6621 5.67854 45.6626 5.60817C45.6674 4.98738 45.6727 4.29516 45.3168 3.77557C44.9761 3.2565 44.3183 3.04253 43.7359 3.04253C42.6621 3.04253 41.7072 3.5933 41.4734 4.73445C41.4258 4.98804 41.2396 5.23767 40.9821 5.24955L38.252 4.95634C38.0222 4.90483 37.7646 4.7186 37.832 4.36595C38.458 1.05344 41.4536 0.0549316 44.1321 0.0549316C45.5031 0.0549316 47.294 0.419467 48.3758 1.4576C49.6361 2.63415 49.6273 4.17235 49.6177 5.85671L49.6177 5.8583C49.6168 6.00564 49.616 6.1541 49.616 6.30353V10.6938C49.616 11.8718 50.0518 12.4592 50.5118 13.0792C50.5671 13.1536 50.6227 13.2285 50.6779 13.305C50.8562 13.5586 50.8958 13.8637 50.666 14.0539C50.0914 14.5333 49.0692 15.4248 48.5065 15.9241L48.5026 15.9162ZM16.4472 15.9558H19.2645C19.5656 15.9558 19.8073 15.722 19.8073 15.4328V7.76962L19.8071 7.58726C19.8043 5.93441 19.8007 3.78351 21.7528 3.78351C23.5496 3.78351 23.5189 5.69721 23.4939 7.25542C23.4911 7.43252 23.4883 7.60503 23.4883 7.76962L23.4923 15.4328C23.4923 15.7101 23.7142 15.936 23.9994 15.9558H26.8127C27.1138 15.9558 27.3555 15.722 27.3555 15.4328V7.76962C27.3555 7.70562 27.3554 7.63918 27.3552 7.57073C27.3531 6.76195 27.3504 5.67213 27.6171 4.99995C27.9063 4.27088 28.6195 3.81521 29.301 3.81521C30.1173 3.81521 30.7473 4.08862 30.9573 5.05938C31.0657 5.52504 31.051 6.60168 31.0411 7.32224C31.0387 7.49664 31.0366 7.65071 31.0366 7.76962V15.4328C31.0366 15.7101 31.2624 15.936 31.5437 15.9558H34.357C34.6581 15.9558 34.8998 15.722 34.8998 15.4328L34.9038 6.30752C34.9038 6.08501 34.9075 5.85801 34.9113 5.62879C34.934 4.2621 34.9579 2.81626 34.1945 1.77461C33.406 0.681009 32.1143 0.193642 30.9335 0.193642C29.2733 0.193642 27.724 1.04554 27.0425 2.87218C26.25 1.04554 25.1485 0.193642 23.3853 0.193642C21.6498 0.193642 20.362 1.04554 19.6765 2.87218H19.625V0.982146C19.6052 0.720633 19.3873 0.510622 19.1139 0.498743H16.4869C16.1857 0.498743 15.944 0.72856 15.944 1.01781V15.4764C15.9638 15.7339 16.1778 15.936 16.4472 15.9558ZM53.0434 0.982118V3.05046C53.0434 3.35952 53.2811 3.56952 53.5783 3.56952H58.4163L52.8571 11.5417C52.5203 12.0529 52.5164 12.6274 52.5164 12.9642V15.0603C52.5164 15.3614 52.8532 15.7101 53.1741 15.5358C56.3242 13.8637 60.1082 14.0261 62.9571 15.5199C63.3058 15.7022 63.6386 15.3495 63.6386 15.0484V12.8414C63.6109 12.5442 63.5119 12.2431 63.1473 12.037C61.5307 11.1257 59.6486 10.8602 57.8655 10.9038L62.6639 4.05293C63.1077 3.43876 63.3573 3.05046 63.3613 2.75328V0.982118C63.3613 0.673057 63.1235 0.45909 62.8264 0.45909H53.5664C53.2811 0.45909 53.0434 0.669094 53.0434 0.982118ZM71.3334 0.193642C75.5136 0.193642 77.7761 3.78351 77.7761 8.34812C77.7761 12.7582 75.2759 16.2569 71.3334 16.2569C67.2284 16.2569 64.9937 12.6671 64.9937 8.19359C64.9937 3.69238 67.2561 0.193642 71.3334 0.193642ZM71.3572 3.14558C69.2809 3.14558 69.1501 5.97468 69.1501 7.73792L69.1501 7.80282C69.1498 9.59568 69.1491 13.2773 71.3334 13.2773C73.5166 13.2773 73.6197 10.2342 73.6197 8.37982C73.6197 7.15942 73.5681 5.70128 73.1996 4.54428C72.8827 3.53785 72.2526 3.14558 71.3572 3.14558ZM80.3914 15.9558H83.1967C83.4979 15.9558 83.7435 15.722 83.7475 15.4328V7.64679C83.7475 6.67206 83.799 5.79242 84.1952 4.90882C84.5083 4.21145 85.1383 3.75182 85.8237 3.75182C87.6193 3.75182 87.6024 5.72297 87.5892 7.26968C87.5881 7.39881 87.587 7.52497 87.587 7.64679V15.5001C87.6147 15.7458 87.8287 15.936 88.0862 15.9558H90.9114C91.1887 15.9558 91.4225 15.7537 91.4542 15.5001V6.39865C91.4542 4.99995 91.4542 3.05445 90.7172 1.89744C89.9248 0.649311 88.6925 0.193642 87.4285 0.193642C85.483 0.193642 84.3775 1.13668 83.589 3.11388H83.5375V0.902901C83.482 0.677048 83.2799 0.510622 83.0343 0.498743H80.4231C80.1378 0.498743 79.904 0.704783 79.8803 0.970259L79.8842 15.4328C79.8842 15.7101 80.1101 15.936 80.3914 15.9558ZM52.9535 18.7813C54.671 18.5776 58.4278 18.1319 59.0976 18.9908C59.7747 19.8581 58.3464 23.4245 57.7079 25.0187L57.7068 25.0215C57.5126 25.5049 57.9287 25.6991 58.3645 25.3345C61.2055 22.9611 61.9346 17.9884 61.3561 17.2712C60.7776 16.558 55.8168 15.9438 52.7935 18.0716C52.326 18.3965 52.4052 18.8482 52.9243 18.7848L52.9535 18.7813ZM37.3403 27.486C43.9416 27.486 51.6087 25.4058 56.8984 21.5069C57.7741 20.8571 57.0252 19.8902 56.1297 20.2706C50.2021 22.7867 43.7553 23.9992 37.8951 23.9992C29.2057 23.9992 20.7936 21.6178 13.9903 17.6595C13.3959 17.3108 12.9522 17.921 13.4474 18.3687C19.7515 24.0626 28.0843 27.486 37.3403 27.486Z" fill="#2C2C2C"/>
</svg>
