<svg width="106" height="22" viewBox="0 0 106 22" fill="none" xmlns="http://www.w3.org/2000/svg">
<path fill-rule="evenodd" clip-rule="evenodd" d="M13.6047 16.7213C13.6047 14.0302 15.7861 11.8488 18.4769 11.8488C21.1678 11.8488 23.3492 14.0302 23.3492 16.7213C23.3492 19.4121 21.1678 21.5935 18.4769 21.5935C15.7861 21.5935 13.6047 19.4121 13.6047 16.7213ZM0.946228 16.7213C0.946228 14.0302 3.12763 11.8493 5.81847 11.8493C8.50942 11.8493 10.6909 14.0302 10.6909 16.7213C10.6909 19.4121 8.50942 21.5935 5.81847 21.5935C3.12763 21.5935 0.946228 19.4121 0.946228 16.7213ZM12.1477 10.631C14.8386 10.631 17.0199 8.44943 17.0199 5.75837C17.0199 3.06785 14.8386 0.88623 12.1477 0.88623C9.45677 0.88623 7.27548 3.06785 7.27548 5.75837C7.27548 8.44943 9.45677 10.631 12.1477 10.631ZM47.4745 14.8176C48.6868 15.6581 50.0101 16.0664 51.2817 16.0664C52.4932 16.0664 53.7456 15.4378 53.7456 14.3438C53.7456 13.2361 52.1758 12.8377 50.6693 12.4555C50.1895 12.3338 49.7161 12.2137 49.3019 12.0728C47.5869 11.4896 46.1099 10.2839 46.1099 8.33155C46.1099 5.34404 48.7698 4.11017 51.2524 4.11017C52.8253 4.11017 54.4482 4.62926 55.5004 5.37286C55.8628 5.64765 55.6421 5.96313 55.6421 5.96313L54.6377 7.39874C54.5248 7.56044 54.3274 7.70015 54.0441 7.52513C54.0245 7.51299 54.0014 7.4983 53.9749 7.48147C53.6203 7.25589 52.6618 6.64622 51.2524 6.64622C49.7376 6.64622 48.8252 7.34627 48.8252 8.21395C48.8252 9.25445 50.0111 9.5817 51.4 9.93634C53.8205 10.5893 56.461 11.3742 56.461 14.3438C56.461 16.976 54.0008 18.6027 51.2817 18.6027C49.2213 18.6027 47.467 18.0149 45.9956 16.9344C45.6891 16.6274 45.9032 16.3423 45.9032 16.3423L46.9027 14.914C47.106 14.6469 47.3624 14.7401 47.4745 14.8176ZM71.7228 18.3064C70.7212 18.3064 70.143 17.3864 70.0795 16.6636L70.0793 16.662C69.1297 17.9195 67.2125 18.6022 65.4534 18.6022C61.4549 18.6022 58.2136 15.3581 58.2136 11.3561C58.2136 7.35427 61.4549 4.11037 65.4534 4.11037C67.2125 4.11037 68.9667 4.67961 70.0795 6.0511V5.00379H70.0816C70.0939 4.78665 70.2732 4.61274 70.4928 4.61274H72.3088C72.5282 4.61274 72.7079 4.78665 72.7197 5.00379H72.722V17.8929C72.722 18.1202 72.536 18.3064 72.3088 18.3064H71.7228ZM60.8559 11.3561C60.8559 13.9577 62.9176 16.0662 65.4605 16.0662C68.0036 16.0662 70.0649 13.9577 70.0649 11.3561C70.0649 8.75505 68.0036 6.64635 65.4605 6.64635C62.9176 6.64635 60.8559 8.75505 60.8559 11.3561ZM103.154 16.6636C103.217 17.3864 103.795 18.3065 104.798 18.3065H105.383C105.611 18.3065 105.797 18.1203 105.797 17.8929V5.00379H105.794C105.783 4.78665 105.603 4.61274 105.383 4.61274H103.568C103.348 4.61274 103.168 4.78665 103.157 5.00379H103.154V6.0511C102.041 4.67961 100.287 4.11037 98.5282 4.11037C94.5295 4.11037 91.2882 7.35428 91.2882 11.3561C91.2882 15.3582 94.5295 18.6021 98.5282 18.6021C100.287 18.6021 102.205 17.9195 103.154 16.662V16.6636ZM98.5349 16.0662C95.992 16.0662 93.9305 13.9576 93.9305 11.3561C93.9305 8.75505 95.992 6.64635 98.5349 6.64635C101.079 6.64635 103.14 8.75505 103.14 11.3561C103.14 13.9576 101.079 16.0662 98.5349 16.0662ZM88.9917 10.4373C88.9917 6.6777 86.6219 4.14142 82.8426 4.14142C81.0385 4.14142 79.5596 5.18544 79.0373 6.08227C78.9244 5.38102 78.5524 4.6439 77.3988 4.6439H76.8108C76.5833 4.6439 76.3976 4.83024 76.3976 5.05762V16.6959V16.6977V17.9478H76.3999C76.4118 18.1646 76.5913 18.3387 76.8109 18.3387H78.6269C78.6547 18.3387 78.682 18.3354 78.7084 18.3303C78.7204 18.3279 78.7315 18.3232 78.7432 18.3199L78.756 18.3162C78.7654 18.3135 78.7748 18.3109 78.7837 18.3073C78.7998 18.3006 78.8144 18.2916 78.8295 18.2832C78.8368 18.2786 78.8446 18.2755 78.8517 18.2708C78.8698 18.2591 78.8864 18.245 78.9025 18.2307C78.9051 18.228 78.9082 18.2262 78.9109 18.2238C78.9289 18.2063 78.9455 18.187 78.96 18.167C79.0054 18.1045 79.0332 18.029 79.0378 17.9478H79.0401V10.3339C79.0401 8.31473 80.6759 6.6777 82.6937 6.6777C84.7113 6.6777 86.3472 8.31473 86.3472 10.3339L86.3488 16.6981L86.3493 16.6959C86.3493 16.6987 86.3495 16.7015 86.3497 16.7043C86.3499 16.7073 86.3501 16.7103 86.3501 16.7133V17.9478H86.3526C86.3646 18.1646 86.544 18.3387 86.7635 18.3387H88.5796C88.6075 18.3387 88.6346 18.3354 88.6609 18.3303C88.6717 18.3283 88.6816 18.324 88.6922 18.3211L88.7034 18.3179C88.7087 18.3164 88.7139 18.3149 88.7192 18.3133C88.7251 18.3115 88.7309 18.3095 88.7366 18.3073C88.7514 18.3011 88.7649 18.2925 88.779 18.2846L88.7834 18.2822L88.7892 18.2793L88.7937 18.2771L88.7984 18.2746L88.8017 18.2727L88.8048 18.2708C88.8215 18.2597 88.8369 18.2464 88.852 18.2333C88.8558 18.2297 88.8601 18.2271 88.8637 18.2235C88.881 18.2068 88.8963 18.1889 88.9103 18.1701L88.9119 18.1681L88.9135 18.1661C88.9583 18.1043 88.9856 18.0295 88.9904 17.9489C88.9904 17.9483 88.9906 17.9478 88.9906 17.9478H88.993L88.9917 10.4373ZM42.1363 18.3064C41.1348 18.3064 40.5566 17.3864 40.4931 16.6636L40.4928 16.662C39.5433 17.9195 37.6262 18.6022 35.8671 18.6022C31.8686 18.6022 28.6271 15.3581 28.6271 11.3561C28.6271 7.35427 31.8686 4.11037 35.8671 4.11037C37.6262 4.11037 39.3804 4.67961 40.4931 6.0511V5.00379H40.4953C40.5075 4.78665 40.6868 4.61274 40.9065 4.61274H42.7225C42.942 4.61274 43.1214 4.78665 43.1333 5.00379H43.1358V17.8929C43.1358 18.1202 42.9496 18.3064 42.7225 18.3064H42.1363ZM31.2695 11.3561C31.2695 13.9577 33.3311 16.0662 35.8742 16.0662C38.4171 16.0662 40.4785 13.9577 40.4785 11.3561C40.4785 8.75505 38.4171 6.64635 35.8742 6.64635C33.3311 6.64635 31.2695 8.75505 31.2695 11.3561Z" fill="#2C2C2C"/>
</svg>
