<svg width="32" height="32" viewBox="0 0 32 32" fill="none" xmlns="http://www.w3.org/2000/svg">
<rect width="32" height="32" rx="8" fill="url(#paint0_linear_154_23036)"/>
<g clip-path="url(#clip0_154_23036)">
<path d="M24.0334 9.03329L22.9667 7.96662C22.8729 7.87189 22.7613 7.79668 22.6383 7.74536C22.5153 7.69403 22.3833 7.6676 22.25 7.6676C22.1167 7.6676 21.9848 7.69403 21.8617 7.74536C21.7387 7.79668 21.6271 7.87189 21.5334 7.96662L7.96668 21.5333C7.87195 21.6271 7.79674 21.7387 7.74542 21.8617C7.69409 21.9847 7.66766 22.1167 7.66766 22.25C7.66766 22.3832 7.69409 22.5152 7.74542 22.6382C7.79674 22.7612 7.87195 22.8729 7.96668 22.9666L9.03335 24.0333C9.12653 24.129 9.23796 24.2052 9.36105 24.2571C9.48415 24.3091 9.6164 24.3359 9.75002 24.3359C9.88363 24.3359 10.0159 24.3091 10.139 24.2571C10.2621 24.2052 10.3735 24.129 10.4667 24.0333L24.0334 10.4666C24.1291 10.3734 24.2052 10.262 24.2572 10.1389C24.3092 10.0158 24.3359 9.88357 24.3359 9.74996C24.3359 9.61634 24.3092 9.48408 24.2572 9.36099C24.2052 9.2379 24.1291 9.12647 24.0334 9.03329Z" stroke="#F1FAFD" stroke-width="1.5" stroke-linecap="round" stroke-linejoin="round"/>
<path d="M17.6667 11.8334L20.1667 14.3334" stroke="#F1FAFD" stroke-width="1.5" stroke-linecap="round" stroke-linejoin="round"/>
<path d="M10.1667 11V14.3333" stroke="#F1FAFD" stroke-width="1.5" stroke-linecap="round" stroke-linejoin="round"/>
<path d="M21.8333 17.6666V21" stroke="#F1FAFD" stroke-width="1.5" stroke-linecap="round" stroke-linejoin="round"/>
<path d="M14.3333 7.66663V9.33329" stroke="#F1FAFD" stroke-width="1.5" stroke-linecap="round" stroke-linejoin="round"/>
<path d="M11.8333 12.6666H8.5" stroke="#F1FAFD" stroke-width="1.5" stroke-linecap="round" stroke-linejoin="round"/>
<path d="M23.5 19.3334H20.1667" stroke="#F1FAFD" stroke-width="1.5" stroke-linecap="round" stroke-linejoin="round"/>
<path d="M15.1667 8.5H13.5" stroke="#F1FAFD" stroke-width="1.5" stroke-linecap="round" stroke-linejoin="round"/>
</g>
<defs>
<linearGradient id="paint0_linear_154_23036" x1="32" y1="0" x2="0" y2="32" gradientUnits="userSpaceOnUse">
<stop stop-color="#68B8D2"/>
<stop offset="0.95873" stop-color="#D3EFF8"/>
</linearGradient>
<clipPath id="clip0_154_23036">
<rect width="20" height="20" fill="white" transform="translate(6 6)"/>
</clipPath>
</defs>
</svg>
