<svg width="136" height="30" viewBox="0 0 136 30" fill="none" xmlns="http://www.w3.org/2000/svg">
<path fill-rule="evenodd" clip-rule="evenodd" d="M7.74753 7.88549C8.04517 7.56305 8.06998 7.06698 8.06998 6.76934V3.47048C8.06998 2.55275 8.06998 2.00708 8.11958 1.63503C8.14439 1.4366 8.2436 1.18857 8.29321 1.06455C8.31801 1.01494 8.29321 1.01494 8.2684 1.03974L1.02581 8.40636C1.001 8.43117 1.001 8.45597 1.05061 8.43117C1.17463 8.38156 1.42266 8.28235 1.62109 8.25754C1.99314 8.20794 2.53881 8.20794 3.45654 8.20794H6.63138C6.92902 8.20794 7.42509 8.18313 7.74753 7.88549ZM13.3531 27.3314C13.5267 27.7778 13.9732 28.4971 14.8165 29.0428C15.4862 29.5141 16.5031 29.9605 17.8673 29.9605C17.8673 29.9605 24.217 30.3326 25.2836 22.6931C25.358 22.6931 26.2757 14.8553 24.7627 6.76934C24.1741 3.66813 21.3131 3.21127 19.7807 2.96657C19.634 2.94315 19.4995 2.92167 19.3803 2.9C17.9417 2.65197 15.0893 2.1559 15.0893 2.1559C15.0893 2.1559 14.7669 0.618086 13.2539 0.246035C13.2012 0.232855 13.1523 0.220453 13.1066 0.208829C12.894 0.154829 12.7475 0.117624 12.5842 0.0972144C12.3114 0.0724107 12.0137 0.0476074 11.7657 0.0476074H11.1704C9.95504 0.0476074 9.13652 0.816514 9.01251 1.73424V1.88306V6.96776C9.01251 7.63746 8.91329 8.20794 8.49164 8.60479C8.16919 8.90243 7.67312 9.12566 6.805 9.12566H1.89392H1.7451C0.802574 9.24968 0.0584717 10.0682 0.0584717 11.2836C0.0596475 11.2977 0.0608233 11.3118 0.0620044 11.3261C0.0857382 11.612 0.111606 11.9236 0.182489 12.3253C0.320747 13.2536 0.537647 14.2291 0.695417 14.9387C0.735774 15.1202 0.772261 15.2843 0.802574 15.4257C1.44746 18.2781 2.68763 19.2951 2.68763 19.2951C4.52309 21.1801 7.17705 21.9738 9.6822 21.825C9.75661 21.825 10.0046 21.8002 10.2279 21.7506C10.4511 21.701 10.6495 21.6266 10.7984 21.5522C12.3362 20.6097 13.1051 17.1372 13.1051 17.1372C13.2787 19.4439 15.8831 20.2624 16.9248 20.3864C16.9496 20.3864 17.2969 20.436 17.6689 20.5104C17.6986 20.5179 17.7285 20.5253 17.7585 20.5327C18.0296 20.5999 18.3088 20.6691 18.4874 20.7585C19.8268 21.3538 20.8437 22.6931 20.8437 24.2061C20.8437 25.8928 19.4796 27.257 17.7929 27.257C17.148 27.257 16.5527 27.0089 16.1063 26.5625C15.8582 26.3144 15.7094 25.9672 15.7094 25.5951C15.7094 25.2479 15.9079 24.9254 16.1559 24.727C16.347 24.5572 16.7199 24.4964 16.901 24.4668C16.9315 24.4618 16.9566 24.4578 16.9744 24.4542C17.0984 24.4294 17.272 24.3798 17.3961 24.3054C17.7433 24.1069 17.9665 23.7597 17.9665 23.338C17.9665 22.7179 17.4705 22.2219 16.8504 22.2219C14.7669 22.2219 13.0803 23.9085 13.0803 25.9672C13.0803 26.4385 13.1795 26.9097 13.3531 27.3314ZM18.7603 13.6647C19.0083 13.0446 19.7028 12.7222 20.5213 12.7966C21.3398 12.8958 21.9351 13.3671 22.0343 14.0615C22.0343 14.0926 22.0359 14.1251 22.0374 14.1577C22.0421 14.2553 22.0467 14.353 22.0095 14.4088C21.9599 14.4832 21.9103 14.508 21.8607 14.508C21.5382 14.5576 21.0422 14.508 20.3229 14.4336C19.6036 14.3592 19.1075 14.2848 18.8099 14.136C18.7603 14.1112 18.7106 14.0863 18.6858 14.0119C18.661 13.9375 18.7106 13.7887 18.7603 13.6647ZM33.7658 20.982L32.9225 21.1556L32.9473 21.8501H46.862L47.2093 16.0213H46.4155C45.7707 17.5839 45.2994 18.6257 44.8529 19.2954C44.0344 20.5107 43.6376 20.7588 41.6533 20.7588C39.2474 20.7588 39.1729 20.5107 39.1729 18.3032V13.541H39.8426C41.6533 13.541 41.9757 13.665 42.2734 14.2851C42.6206 15.0044 42.819 15.5004 43.0423 16.2693H43.7864V9.87006H43.0423C42.819 10.6638 42.6206 11.135 42.2734 11.7551C41.9757 12.3008 41.5789 12.4992 39.8426 12.4992H39.1729V6.17435C39.545 6.07513 40.1651 5.92631 41.43 5.92631C43.1415 5.92631 43.6624 6.02553 44.4561 7.16648C44.8281 7.71216 45.225 8.43146 45.8451 9.79565H46.614L46.3659 4.85977H32.9225V5.55426L33.7658 5.72789C34.4851 5.90151 34.7083 6.02553 34.7083 7.51373V19.1961C34.7083 20.6844 34.5099 20.7836 33.7658 20.982ZM47.8293 9.91967C48.4494 10.1181 48.7223 10.4653 49.2927 11.8543L53.3357 21.8501H55.4192L59.2141 12.1272C59.8094 10.5149 60.0822 10.1429 60.7271 9.91967L61.1984 9.77084V9.12595H56.6594V9.77084L57.329 9.94447C57.8499 10.0685 58.0979 10.3413 58.0979 10.887C58.0979 11.2342 57.9987 11.6559 57.7755 12.2512L55.7912 17.9064H55.6672L53.6085 12.2512C53.4101 11.7055 53.2861 11.2839 53.2861 10.9366C53.2861 10.3413 53.5341 10.0933 54.055 9.94447L54.7247 9.77084V9.12595H47.3581V9.77084L47.8293 9.91967ZM67.0272 8.80351C63.7779 8.80351 60.6279 11.1598 60.6279 15.426C60.6279 19.593 62.7362 22.123 67.0024 22.1726C69.4579 22.1726 71.3182 20.8828 72.1863 19.9403V19.1217C71.2686 19.593 70.1028 20.0395 68.5898 20.0395C66.0599 20.0395 64.5468 18.9481 64.4724 14.93H72.5832C72.5087 10.4901 70.4005 8.80351 67.0272 8.80351ZM68.6642 13.7642L64.4724 13.9874C64.5716 10.9118 65.5638 9.72124 66.804 9.72124C68.2674 9.72124 68.6642 10.8126 68.6642 13.7642ZM82.7774 8.7291C81.1403 8.7291 79.7265 9.94447 79.032 10.6886L78.9576 10.6638L79.0072 8.97713L78.7344 8.77871L73.5753 9.37399V9.87006L74.3938 10.4157L74.4129 10.4287C75.0906 10.8885 75.2123 10.971 75.2123 12.0032V19.6178C75.2123 20.6595 75.1131 20.7836 74.2946 21.0068L73.6497 21.1804V21.8501H80.7187V21.1804L79.9002 21.0068C79.1561 20.8828 79.0568 20.7588 79.0568 19.6178V11.6807C79.3793 11.3831 79.9002 11.0606 80.3466 11.0606C80.5699 11.0606 80.8923 11.135 81.0411 11.4079C81.314 12.0776 82.0085 12.5488 82.7774 12.5488C83.8439 12.5488 84.6872 11.7055 84.6872 10.639C84.6872 9.57242 83.8191 8.7291 82.7774 8.7291ZM86.0762 21.0068L85.4313 21.1804H85.4809V21.8501H92.3019V21.1804L91.7066 21.0316C90.9625 20.8332 90.8881 20.7836 90.8881 19.6178V11.3831L90.8973 11.381C91.4436 11.2568 92.3068 11.0606 93.17 11.0606C94.311 11.0606 94.8566 11.5319 94.8566 13.0201V19.593C94.8566 20.734 94.7822 20.8084 94.0381 21.0068L93.4428 21.1556V21.8253H100.264V21.1556L99.6189 20.982C98.8252 20.7836 98.726 20.6595 98.726 19.593V12.0528C98.726 9.84525 97.6098 8.77871 95.5263 8.77871C93.7405 8.77871 92.1283 9.59722 90.8385 10.5149H90.7393L90.7889 8.95233L90.516 8.77871L85.3569 9.37399V9.87006L86.1754 10.4157L86.1946 10.4287C86.8722 10.8885 86.9939 10.971 86.9939 12.0032V19.6178C86.9939 20.6595 86.8947 20.7836 86.0762 21.0068ZM107.358 8.80351C104.059 8.80351 100.735 10.8126 100.735 15.5004C100.735 19.9899 103.811 22.123 107.358 22.123C110.731 22.123 114.005 20.0643 114.005 15.3764C114.005 10.9366 110.904 8.80351 107.358 8.80351ZM107.258 9.74604C108.945 9.74604 109.888 10.6886 109.888 15.6245C109.888 20.3123 108.871 21.1804 107.407 21.1804C105.621 21.1804 104.803 20.0891 104.803 15.0788C104.803 10.8622 105.721 9.74604 107.258 9.74604ZM116.113 10.5646V18.7497C116.113 21.1556 117.304 22.123 119.511 22.123C121.57 22.123 122.785 21.23 123.381 20.6844V19.9899C122.934 20.0891 122.215 20.2131 121.62 20.2131C120.404 20.2131 120.032 19.717 120.032 18.5016V10.5646H122.959L123.281 9.12595H120.032V5.8519H118.643C117.949 7.81137 116.485 9.22517 114.575 9.96927V10.5646H116.113ZM130.276 8.80351C127.027 8.80351 123.877 11.1598 123.877 15.426C123.877 19.593 125.985 22.123 130.276 22.1726C132.731 22.1726 134.592 20.8828 135.46 19.9403V19.1217C134.542 19.593 133.376 20.0395 131.863 20.0395C129.333 20.0395 127.82 18.9481 127.746 14.93H135.832C135.757 10.4901 133.649 8.80351 130.276 8.80351ZM131.913 13.7642L127.721 13.9874C127.82 10.9118 128.813 9.72124 130.053 9.72124C131.516 9.72124 131.913 10.8126 131.913 13.7642Z" fill="#2C2C2C"/>
</svg>
