<svg width="33" height="32" viewBox="0 0 33 32" fill="none" xmlns="http://www.w3.org/2000/svg">
<rect x="0.333313" width="32" height="32" rx="8" fill="url(#paint0_linear_154_23041)"/>
<path d="M10.0833 19.75C8.83329 20.8 8.41663 23.9167 8.41663 23.9167C8.41663 23.9167 11.5333 23.5 12.5833 22.25C13.175 21.55 13.1666 20.475 12.5083 19.825C12.1844 19.5159 11.7577 19.3372 11.3101 19.3234C10.8626 19.3095 10.4257 19.4615 10.0833 19.75Z" stroke="#F6FCF9" stroke-width="1.5" stroke-linecap="round" stroke-linejoin="round"/>
<path d="M16.3333 18.5L13.8333 16C14.2768 14.8496 14.8351 13.7468 15.5 12.7084C16.471 11.1559 17.823 9.87758 19.4275 8.99512C21.032 8.11266 22.8355 7.65535 24.6666 7.66671C24.6666 9.93338 24.0166 13.9167 19.6666 16.8334C18.6141 17.499 17.4974 18.0573 16.3333 18.5Z" stroke="#F6FCF9" stroke-width="1.5" stroke-linecap="round" stroke-linejoin="round"/>
<path d="M13.8333 16.0001H9.66663C9.66663 16.0001 10.125 13.4751 11.3333 12.6667C12.6833 11.7667 15.5 12.6667 15.5 12.6667" stroke="#F6FCF9" stroke-width="1.5" stroke-linecap="round" stroke-linejoin="round"/>
<path d="M16.3333 18.5V22.6667C16.3333 22.6667 18.8583 22.2084 19.6666 21C20.5666 19.65 19.6666 16.8334 19.6666 16.8334" stroke="#F6FCF9" stroke-width="1.5" stroke-linecap="round" stroke-linejoin="round"/>
<defs>
<linearGradient id="paint0_linear_154_23041" x1="32.3333" y1="0" x2="0.333313" y2="32" gradientUnits="userSpaceOnUse">
<stop stop-color="#92CDAF"/>
<stop offset="0.95373" stop-color="#E2F6EB"/>
</linearGradient>
</defs>
</svg>
