<svg width="96" height="27" viewBox="0 0 96 27" fill="none" xmlns="http://www.w3.org/2000/svg">
<path fill-rule="evenodd" clip-rule="evenodd" d="M87.0024 13.3859H86.2094L86.2002 20.4649H82.7795V0.392456H86.2094V10.352C88.6897 10.352 91.1883 9.17813 91.1883 6.07198H94.5999C94.5999 8.93433 92.8112 11.598 90.1464 12.6183L95.6417 20.4649H91.7784L87.0024 13.3859ZM26.7752 17.9184C24.1289 17.9184 22.3771 15.9138 21.8885 15.1373C22.5155 10.2253 24.3503 8.6722 26.7752 8.6722C29.1725 8.6722 31.035 10.5503 31.035 13.2952C31.035 16.0402 29.1725 17.9184 26.7752 17.9184ZM26.7752 5.65636C22.4602 5.65636 20.0445 8.41035 19.3529 11.2456C18.5692 9.80088 17.9884 7.86859 17.5366 6.07172H11.5711V13.3404C11.5711 15.9771 10.3448 17.9274 7.94755 17.9274C5.55029 17.9274 4.17649 15.9771 4.17649 13.3404L4.20415 6.07172H0.765015V13.3404C0.765015 15.4624 1.46575 17.3857 2.74736 18.7581C4.06585 20.1757 5.86378 20.9161 7.94755 20.9161C12.0966 20.9161 14.9918 17.801 14.9918 13.3404V8.45549C15.4251 10.0627 16.4578 13.1508 18.4309 15.8597L16.5869 26.1442H20.0814L21.2984 18.8574C21.6949 19.1825 22.119 19.4714 22.5708 19.7333C23.7417 20.4557 25.0786 20.862 26.4617 20.9071C26.4617 20.9071 26.6737 20.9161 26.7844 20.9161C31.0626 20.9161 34.4648 17.6746 34.4648 13.2952C34.4648 8.91599 31.0534 5.65636 26.7752 5.65636ZM76.1864 7.62553V6.07247H72.8118V20.4563H76.2325V14.822C76.2325 11.3547 76.5552 8.86257 81.3036 9.18763V5.90091C79.0907 5.73838 77.3666 6.18985 76.1864 7.62553ZM49.9559 16.1316L52.4361 6.0728H56.0966L52.0765 20.4658H47.9643L45.1337 10.2444L42.2755 20.4658H38.1633L34.3645 6.0728H37.8313L40.3023 16.1316L42.9578 6.0728H47.3096L49.9559 16.1316ZM63.6293 17.9274C61.1953 17.9274 59.3697 16.0493 59.3697 13.2952C59.3697 10.5413 61.2045 8.6722 63.6293 8.6722C66.0267 8.6722 67.8892 10.5503 67.8892 13.2952C67.8892 16.0402 66.0267 17.9274 63.6293 17.9274ZM63.6293 5.65636C59.3235 5.65636 55.949 8.92502 55.949 13.2952C55.949 17.6655 59.3235 20.9071 63.6293 20.9071C67.9075 20.9071 71.3098 17.6655 71.3098 13.2952C71.3098 8.92502 67.9168 5.65636 63.6293 5.65636Z" fill="#2C2C2C"/>
</svg>
